<svg xmlns="http://www.w3.org/2000/svg" xmlns:xlink="http://www.w3.org/1999/xlink" width="1000" height="500" viewBox="0 0 4000 2000">
<defs>
  <clipPath id="clip850">
    <rect x="0" y="0" width="4000" height="2000"></rect>
  </clipPath>
</defs>
<path clip-path="url(#clip850)" d="M0 2000 L4000 2000 L4000 0 L0 0  Z" fill="#ffffff" fill-rule="evenodd" fill-opacity="1"></path>
<defs>
  <clipPath id="clip851">
    <rect x="800" y="0" width="2801" height="2000"></rect>
  </clipPath>
</defs>
<path clip-path="url(#clip850)" d="M263.084 1881.88 L3952.76 1881.88 L3952.76 47.2441 L263.084 47.2441  Z" fill="#ffffff" fill-rule="evenodd" fill-opacity="1"></path>
<defs>
  <clipPath id="clip852">
    <rect x="263" y="47" width="3691" height="1836"></rect>
  </clipPath>
</defs>
<polyline clip-path="url(#clip852)" style="stroke:#000000; stroke-linecap:round; stroke-linejoin:round; stroke-width:2; stroke-opacity:0.1; fill:none" points="367.509,1881.88 367.509,47.2441 "></polyline>
<polyline clip-path="url(#clip852)" style="stroke:#000000; stroke-linecap:round; stroke-linejoin:round; stroke-width:2; stroke-opacity:0.1; fill:none" points="1246.5,1881.88 1246.5,47.2441 "></polyline>
<polyline clip-path="url(#clip852)" style="stroke:#000000; stroke-linecap:round; stroke-linejoin:round; stroke-width:2; stroke-opacity:0.1; fill:none" points="2125.5,1881.88 2125.5,47.2441 "></polyline>
<polyline clip-path="url(#clip852)" style="stroke:#000000; stroke-linecap:round; stroke-linejoin:round; stroke-width:2; stroke-opacity:0.1; fill:none" points="3004.5,1881.88 3004.5,47.2441 "></polyline>
<polyline clip-path="url(#clip852)" style="stroke:#000000; stroke-linecap:round; stroke-linejoin:round; stroke-width:2; stroke-opacity:0.1; fill:none" points="3883.49,1881.88 3883.49,47.2441 "></polyline>
<polyline clip-path="url(#clip850)" style="stroke:#000000; stroke-linecap:round; stroke-linejoin:round; stroke-width:4; stroke-opacity:1; fill:none" points="263.084,1881.88 3952.76,1881.88 "></polyline>
<polyline clip-path="url(#clip850)" style="stroke:#000000; stroke-linecap:round; stroke-linejoin:round; stroke-width:4; stroke-opacity:1; fill:none" points="367.509,1881.88 367.509,1862.98 "></polyline>
<polyline clip-path="url(#clip850)" style="stroke:#000000; stroke-linecap:round; stroke-linejoin:round; stroke-width:4; stroke-opacity:1; fill:none" points="1246.5,1881.88 1246.5,1862.98 "></polyline>
<polyline clip-path="url(#clip850)" style="stroke:#000000; stroke-linecap:round; stroke-linejoin:round; stroke-width:4; stroke-opacity:1; fill:none" points="2125.5,1881.88 2125.5,1862.98 "></polyline>
<polyline clip-path="url(#clip850)" style="stroke:#000000; stroke-linecap:round; stroke-linejoin:round; stroke-width:4; stroke-opacity:1; fill:none" points="3004.5,1881.88 3004.5,1862.98 "></polyline>
<polyline clip-path="url(#clip850)" style="stroke:#000000; stroke-linecap:round; stroke-linejoin:round; stroke-width:4; stroke-opacity:1; fill:none" points="3883.49,1881.88 3883.49,1862.98 "></polyline>
<path clip-path="url(#clip850)" d="M367.509 1925.59 Q363.897 1925.59 362.069 1929.16 Q360.263 1932.7 360.263 1939.83 Q360.263 1946.94 362.069 1950.5 Q363.897 1954.04 367.509 1954.04 Q371.143 1954.04 372.948 1950.5 Q374.777 1946.94 374.777 1939.83 Q374.777 1932.7 372.948 1929.16 Q371.143 1925.59 367.509 1925.59 M367.509 1921.89 Q373.319 1921.89 376.374 1926.5 Q379.453 1931.08 379.453 1939.83 Q379.453 1948.56 376.374 1953.16 Q373.319 1957.75 367.509 1957.75 Q361.698 1957.75 358.62 1953.16 Q355.564 1948.56 355.564 1939.83 Q355.564 1931.08 358.62 1926.5 Q361.698 1921.89 367.509 1921.89 Z" fill="#000000" fill-rule="nonzero" fill-opacity="1"></path><path clip-path="url(#clip850)" d="M1142.41 1968.8 L1158.73 1968.8 L1158.73 1972.74 L1136.78 1972.74 L1136.78 1968.8 Q1139.44 1966.05 1144.03 1961.42 Q1148.63 1956.76 1149.81 1955.42 Q1152.06 1952.9 1152.94 1951.16 Q1153.84 1949.4 1153.84 1947.71 Q1153.84 1944.96 1151.9 1943.22 Q1149.98 1941.49 1146.88 1941.49 Q1144.68 1941.49 1142.22 1942.25 Q1139.79 1943.01 1137.01 1944.56 L1137.01 1939.84 Q1139.84 1938.71 1142.29 1938.13 Q1144.75 1937.55 1146.78 1937.55 Q1152.15 1937.55 1155.35 1940.24 Q1158.54 1942.92 1158.54 1947.41 Q1158.54 1949.54 1157.73 1951.46 Q1156.94 1953.36 1154.84 1955.95 Q1154.26 1956.62 1151.16 1959.84 Q1148.06 1963.04 1142.41 1968.8 Z" fill="#000000" fill-rule="nonzero" fill-opacity="1"></path><path clip-path="url(#clip850)" d="M1168.54 1966.86 L1173.43 1966.86 L1173.43 1972.74 L1168.54 1972.74 L1168.54 1966.86 Z" fill="#000000" fill-rule="nonzero" fill-opacity="1"></path><path clip-path="url(#clip850)" d="M1183.66 1938.18 L1202.01 1938.18 L1202.01 1942.11 L1187.94 1942.11 L1187.94 1950.58 Q1188.96 1950.24 1189.98 1950.07 Q1191 1949.89 1192.01 1949.89 Q1197.8 1949.89 1201.18 1953.06 Q1204.56 1956.23 1204.56 1961.65 Q1204.56 1967.23 1201.09 1970.33 Q1197.62 1973.41 1191.3 1973.41 Q1189.12 1973.41 1186.85 1973.04 Q1184.61 1972.67 1182.2 1971.93 L1182.2 1967.23 Q1184.28 1968.36 1186.5 1968.92 Q1188.73 1969.47 1191.2 1969.47 Q1195.21 1969.47 1197.55 1967.37 Q1199.88 1965.26 1199.88 1961.65 Q1199.88 1958.04 1197.55 1955.93 Q1195.21 1953.82 1191.2 1953.82 Q1189.33 1953.82 1187.45 1954.24 Q1185.6 1954.66 1183.66 1955.54 L1183.66 1938.18 Z" fill="#000000" fill-rule="nonzero" fill-opacity="1"></path><path clip-path="url(#clip850)" d="M1223.77 1941.25 Q1220.16 1941.25 1218.33 1944.82 Q1216.53 1948.36 1216.53 1955.49 Q1216.53 1962.6 1218.33 1966.16 Q1220.16 1969.7 1223.77 1969.7 Q1227.41 1969.7 1229.21 1966.16 Q1231.04 1962.6 1231.04 1955.49 Q1231.04 1948.36 1229.21 1944.82 Q1227.41 1941.25 1223.77 1941.25 M1223.77 1937.55 Q1229.58 1937.55 1232.64 1942.16 Q1235.72 1946.74 1235.72 1955.49 Q1235.72 1964.22 1232.64 1968.82 Q1229.58 1973.41 1223.77 1973.41 Q1217.96 1973.41 1214.88 1968.82 Q1211.83 1964.22 1211.83 1955.49 Q1211.83 1946.74 1214.88 1942.16 Q1217.96 1937.55 1223.77 1937.55 Z" fill="#000000" fill-rule="nonzero" fill-opacity="1"></path><path clip-path="url(#clip850)" d="M1272.11 1947.27 L1261.53 1957.9 L1272.11 1968.48 L1269.35 1971.28 L1258.73 1960.65 L1248.1 1971.28 L1245.37 1968.48 L1255.93 1957.9 L1245.37 1947.27 L1248.1 1944.47 L1258.73 1955.1 L1269.35 1944.47 L1272.11 1947.27 Z" fill="#000000" fill-rule="nonzero" fill-opacity="1"></path><path clip-path="url(#clip850)" d="M1284.47 1968.8 L1292.11 1968.8 L1292.11 1942.43 L1283.8 1944.1 L1283.8 1939.84 L1292.06 1938.18 L1296.74 1938.18 L1296.74 1968.8 L1304.37 1968.8 L1304.37 1972.74 L1284.47 1972.74 L1284.47 1968.8 Z" fill="#000000" fill-rule="nonzero" fill-opacity="1"></path><path clip-path="url(#clip850)" d="M1323.82 1941.25 Q1320.21 1941.25 1318.38 1944.82 Q1316.57 1948.36 1316.57 1955.49 Q1316.57 1962.6 1318.38 1966.16 Q1320.21 1969.7 1323.82 1969.7 Q1327.45 1969.7 1329.26 1966.16 Q1331.09 1962.6 1331.09 1955.49 Q1331.09 1948.36 1329.26 1944.82 Q1327.45 1941.25 1323.82 1941.25 M1323.82 1937.55 Q1329.63 1937.55 1332.68 1942.16 Q1335.76 1946.74 1335.76 1955.49 Q1335.76 1964.22 1332.68 1968.82 Q1329.63 1973.41 1323.82 1973.41 Q1318.01 1973.41 1314.93 1968.82 Q1311.87 1964.22 1311.87 1955.49 Q1311.87 1946.74 1314.93 1942.16 Q1318.01 1937.55 1323.82 1937.55 Z" fill="#000000" fill-rule="nonzero" fill-opacity="1"></path><path clip-path="url(#clip850)" d="M1348.44 1920.56 L1338.85 1935.55 L1348.44 1935.55 L1348.44 1920.56 M1347.44 1917.25 L1352.22 1917.25 L1352.22 1935.55 L1356.23 1935.55 L1356.23 1938.7 L1352.22 1938.7 L1352.22 1945.33 L1348.44 1945.33 L1348.44 1938.7 L1335.76 1938.7 L1335.76 1935.04 L1347.44 1917.25 Z" fill="#000000" fill-rule="nonzero" fill-opacity="1"></path><path clip-path="url(#clip850)" d="M2017.33 1938.18 L2035.69 1938.18 L2035.69 1942.11 L2021.61 1942.11 L2021.61 1950.58 Q2022.63 1950.24 2023.65 1950.07 Q2024.67 1949.89 2025.69 1949.89 Q2031.47 1949.89 2034.85 1953.06 Q2038.23 1956.23 2038.23 1961.65 Q2038.23 1967.23 2034.76 1970.33 Q2031.29 1973.41 2024.97 1973.41 Q2022.79 1973.41 2020.52 1973.04 Q2018.28 1972.67 2015.87 1971.93 L2015.87 1967.23 Q2017.95 1968.36 2020.18 1968.92 Q2022.4 1969.47 2024.88 1969.47 Q2028.88 1969.47 2031.22 1967.37 Q2033.56 1965.26 2033.56 1961.65 Q2033.56 1958.04 2031.22 1955.93 Q2028.88 1953.82 2024.88 1953.82 Q2023 1953.82 2021.13 1954.24 Q2019.27 1954.66 2017.33 1955.54 L2017.33 1938.18 Z" fill="#000000" fill-rule="nonzero" fill-opacity="1"></path><path clip-path="url(#clip850)" d="M2047.44 1966.86 L2052.33 1966.86 L2052.33 1972.74 L2047.44 1972.74 L2047.44 1966.86 Z" fill="#000000" fill-rule="nonzero" fill-opacity="1"></path><path clip-path="url(#clip850)" d="M2072.51 1941.25 Q2068.9 1941.25 2067.07 1944.82 Q2065.27 1948.36 2065.27 1955.49 Q2065.27 1962.6 2067.07 1966.16 Q2068.9 1969.7 2072.51 1969.7 Q2076.15 1969.7 2077.95 1966.16 Q2079.78 1962.6 2079.78 1955.49 Q2079.78 1948.36 2077.95 1944.82 Q2076.15 1941.25 2072.51 1941.25 M2072.51 1937.55 Q2078.32 1937.55 2081.38 1942.16 Q2084.46 1946.74 2084.46 1955.49 Q2084.46 1964.22 2081.38 1968.82 Q2078.32 1973.41 2072.51 1973.41 Q2066.7 1973.41 2063.63 1968.82 Q2060.57 1964.22 2060.57 1955.49 Q2060.57 1946.74 2063.63 1942.16 Q2066.7 1937.55 2072.51 1937.55 Z" fill="#000000" fill-rule="nonzero" fill-opacity="1"></path><path clip-path="url(#clip850)" d="M2102.68 1941.25 Q2099.06 1941.25 2097.24 1944.82 Q2095.43 1948.36 2095.43 1955.49 Q2095.43 1962.6 2097.24 1966.16 Q2099.06 1969.7 2102.68 1969.7 Q2106.31 1969.7 2108.12 1966.16 Q2109.94 1962.6 2109.94 1955.49 Q2109.94 1948.36 2108.12 1944.82 Q2106.31 1941.25 2102.68 1941.25 M2102.68 1937.55 Q2108.49 1937.55 2111.54 1942.16 Q2114.62 1946.74 2114.62 1955.49 Q2114.62 1964.22 2111.54 1968.82 Q2108.49 1973.41 2102.68 1973.41 Q2096.87 1973.41 2093.79 1968.82 Q2090.73 1964.22 2090.73 1955.49 Q2090.73 1946.74 2093.79 1942.16 Q2096.87 1937.55 2102.68 1937.55 Z" fill="#000000" fill-rule="nonzero" fill-opacity="1"></path><path clip-path="url(#clip850)" d="M2151.01 1947.27 L2140.43 1957.9 L2151.01 1968.48 L2148.25 1971.28 L2137.63 1960.65 L2127 1971.28 L2124.27 1968.48 L2134.83 1957.9 L2124.27 1947.27 L2127 1944.47 L2137.63 1955.1 L2148.25 1944.47 L2151.01 1947.27 Z" fill="#000000" fill-rule="nonzero" fill-opacity="1"></path><path clip-path="url(#clip850)" d="M2163.37 1968.8 L2171.01 1968.8 L2171.01 1942.43 L2162.7 1944.1 L2162.7 1939.84 L2170.96 1938.18 L2175.64 1938.18 L2175.64 1968.8 L2183.28 1968.8 L2183.28 1972.74 L2163.37 1972.74 L2163.37 1968.8 Z" fill="#000000" fill-rule="nonzero" fill-opacity="1"></path><path clip-path="url(#clip850)" d="M2202.72 1941.25 Q2199.11 1941.25 2197.28 1944.82 Q2195.48 1948.36 2195.48 1955.49 Q2195.48 1962.6 2197.28 1966.16 Q2199.11 1969.7 2202.72 1969.7 Q2206.36 1969.7 2208.16 1966.16 Q2209.99 1962.6 2209.99 1955.49 Q2209.99 1948.36 2208.16 1944.82 Q2206.36 1941.25 2202.72 1941.25 M2202.72 1937.55 Q2208.53 1937.55 2211.59 1942.16 Q2214.67 1946.74 2214.67 1955.49 Q2214.67 1964.22 2211.59 1968.82 Q2208.53 1973.41 2202.72 1973.41 Q2196.91 1973.41 2193.83 1968.82 Q2190.78 1964.22 2190.78 1955.49 Q2190.78 1946.74 2193.83 1942.16 Q2196.91 1937.55 2202.72 1937.55 Z" fill="#000000" fill-rule="nonzero" fill-opacity="1"></path><path clip-path="url(#clip850)" d="M2227.34 1920.56 L2217.75 1935.55 L2227.34 1935.55 L2227.34 1920.56 M2226.35 1917.25 L2231.12 1917.25 L2231.12 1935.55 L2235.13 1935.55 L2235.13 1938.7 L2231.12 1938.7 L2231.12 1945.33 L2227.34 1945.33 L2227.34 1938.7 L2214.67 1938.7 L2214.67 1935.04 L2226.35 1917.25 Z" fill="#000000" fill-rule="nonzero" fill-opacity="1"></path><path clip-path="url(#clip850)" d="M2894.98 1938.18 L2917.2 1938.18 L2917.2 1940.17 L2904.66 1972.74 L2899.77 1972.74 L2911.58 1942.11 L2894.98 1942.11 L2894.98 1938.18 Z" fill="#000000" fill-rule="nonzero" fill-opacity="1"></path><path clip-path="url(#clip850)" d="M2926.32 1966.86 L2931.21 1966.86 L2931.21 1972.74 L2926.32 1972.74 L2926.32 1966.86 Z" fill="#000000" fill-rule="nonzero" fill-opacity="1"></path><path clip-path="url(#clip850)" d="M2941.44 1938.18 L2959.8 1938.18 L2959.8 1942.11 L2945.72 1942.11 L2945.72 1950.58 Q2946.74 1950.24 2947.76 1950.07 Q2948.78 1949.89 2949.8 1949.89 Q2955.58 1949.89 2958.96 1953.06 Q2962.34 1956.23 2962.34 1961.65 Q2962.34 1967.23 2958.87 1970.33 Q2955.4 1973.41 2949.08 1973.41 Q2946.9 1973.41 2944.63 1973.04 Q2942.39 1972.67 2939.98 1971.93 L2939.98 1967.23 Q2942.07 1968.36 2944.29 1968.92 Q2946.51 1969.47 2948.99 1969.47 Q2952.99 1969.47 2955.33 1967.37 Q2957.67 1965.26 2957.67 1961.65 Q2957.67 1958.04 2955.33 1955.93 Q2952.99 1953.82 2948.99 1953.82 Q2947.11 1953.82 2945.24 1954.24 Q2943.38 1954.66 2941.44 1955.54 L2941.44 1938.18 Z" fill="#000000" fill-rule="nonzero" fill-opacity="1"></path><path clip-path="url(#clip850)" d="M2981.56 1941.25 Q2977.94 1941.25 2976.12 1944.82 Q2974.31 1948.36 2974.31 1955.49 Q2974.31 1962.6 2976.12 1966.16 Q2977.94 1969.7 2981.56 1969.7 Q2985.19 1969.7 2987 1966.16 Q2988.82 1962.6 2988.82 1955.49 Q2988.82 1948.36 2987 1944.82 Q2985.19 1941.25 2981.56 1941.25 M2981.56 1937.55 Q2987.37 1937.55 2990.42 1942.16 Q2993.5 1946.74 2993.5 1955.49 Q2993.5 1964.22 2990.42 1968.82 Q2987.37 1973.41 2981.56 1973.41 Q2975.75 1973.41 2972.67 1968.82 Q2969.61 1964.22 2969.61 1955.49 Q2969.61 1946.74 2972.67 1942.16 Q2975.75 1937.55 2981.56 1937.55 Z" fill="#000000" fill-rule="nonzero" fill-opacity="1"></path><path clip-path="url(#clip850)" d="M3029.89 1947.27 L3019.31 1957.9 L3029.89 1968.48 L3027.13 1971.28 L3016.51 1960.65 L3005.88 1971.28 L3003.15 1968.48 L3013.71 1957.9 L3003.15 1947.27 L3005.88 1944.47 L3016.51 1955.1 L3027.13 1944.47 L3029.89 1947.27 Z" fill="#000000" fill-rule="nonzero" fill-opacity="1"></path><path clip-path="url(#clip850)" d="M3042.25 1968.8 L3049.89 1968.8 L3049.89 1942.43 L3041.58 1944.1 L3041.58 1939.84 L3049.84 1938.18 L3054.52 1938.18 L3054.52 1968.8 L3062.16 1968.8 L3062.16 1972.74 L3042.25 1972.74 L3042.25 1968.8 Z" fill="#000000" fill-rule="nonzero" fill-opacity="1"></path><path clip-path="url(#clip850)" d="M3081.6 1941.25 Q3077.99 1941.25 3076.16 1944.82 Q3074.36 1948.36 3074.36 1955.49 Q3074.36 1962.6 3076.16 1966.16 Q3077.99 1969.7 3081.6 1969.7 Q3085.24 1969.7 3087.04 1966.16 Q3088.87 1962.6 3088.87 1955.49 Q3088.87 1948.36 3087.04 1944.82 Q3085.24 1941.25 3081.6 1941.25 M3081.6 1937.55 Q3087.41 1937.55 3090.47 1942.16 Q3093.55 1946.74 3093.55 1955.49 Q3093.55 1964.22 3090.47 1968.82 Q3087.41 1973.41 3081.6 1973.41 Q3075.79 1973.41 3072.71 1968.82 Q3069.66 1964.22 3069.66 1955.49 Q3069.66 1946.74 3072.71 1942.16 Q3075.79 1937.55 3081.6 1937.55 Z" fill="#000000" fill-rule="nonzero" fill-opacity="1"></path><path clip-path="url(#clip850)" d="M3106.22 1920.56 L3096.63 1935.55 L3106.22 1935.55 L3106.22 1920.56 M3105.23 1917.25 L3110 1917.25 L3110 1935.55 L3114.01 1935.55 L3114.01 1938.7 L3110 1938.7 L3110 1945.33 L3106.22 1945.33 L3106.22 1938.7 L3093.55 1938.7 L3093.55 1935.04 L3105.23 1917.25 Z" fill="#000000" fill-rule="nonzero" fill-opacity="1"></path><path clip-path="url(#clip850)" d="M3776.46 1968.8 L3784.09 1968.8 L3784.09 1942.43 L3775.78 1944.1 L3775.78 1939.84 L3784.05 1938.18 L3788.72 1938.18 L3788.72 1968.8 L3796.36 1968.8 L3796.36 1972.74 L3776.46 1972.74 L3776.46 1968.8 Z" fill="#000000" fill-rule="nonzero" fill-opacity="1"></path><path clip-path="url(#clip850)" d="M3805.81 1966.86 L3810.69 1966.86 L3810.69 1972.74 L3805.81 1972.74 L3805.81 1966.86 Z" fill="#000000" fill-rule="nonzero" fill-opacity="1"></path><path clip-path="url(#clip850)" d="M3830.88 1941.25 Q3827.27 1941.25 3825.44 1944.82 Q3823.63 1948.36 3823.63 1955.49 Q3823.63 1962.6 3825.44 1966.16 Q3827.27 1969.7 3830.88 1969.7 Q3834.51 1969.7 3836.32 1966.16 Q3838.15 1962.6 3838.15 1955.49 Q3838.15 1948.36 3836.32 1944.82 Q3834.51 1941.25 3830.88 1941.25 M3830.88 1937.55 Q3836.69 1937.55 3839.74 1942.16 Q3842.82 1946.74 3842.82 1955.49 Q3842.82 1964.22 3839.74 1968.82 Q3836.69 1973.41 3830.88 1973.41 Q3825.07 1973.41 3821.99 1968.82 Q3818.93 1964.22 3818.93 1955.49 Q3818.93 1946.74 3821.99 1942.16 Q3825.07 1937.55 3830.88 1937.55 Z" fill="#000000" fill-rule="nonzero" fill-opacity="1"></path><path clip-path="url(#clip850)" d="M3861.04 1941.25 Q3857.43 1941.25 3855.6 1944.82 Q3853.79 1948.36 3853.79 1955.49 Q3853.79 1962.6 3855.6 1966.16 Q3857.43 1969.7 3861.04 1969.7 Q3864.67 1969.7 3866.48 1966.16 Q3868.31 1962.6 3868.31 1955.49 Q3868.31 1948.36 3866.48 1944.82 Q3864.67 1941.25 3861.04 1941.25 M3861.04 1937.55 Q3866.85 1937.55 3869.9 1942.16 Q3872.98 1946.74 3872.98 1955.49 Q3872.98 1964.22 3869.9 1968.82 Q3866.85 1973.41 3861.04 1973.41 Q3855.23 1973.41 3852.15 1968.82 Q3849.09 1964.22 3849.09 1955.49 Q3849.09 1946.74 3852.15 1942.16 Q3855.23 1937.55 3861.04 1937.55 Z" fill="#000000" fill-rule="nonzero" fill-opacity="1"></path><path clip-path="url(#clip850)" d="M3909.37 1947.27 L3898.79 1957.9 L3909.37 1968.48 L3906.62 1971.28 L3895.99 1960.65 L3885.37 1971.28 L3882.64 1968.48 L3893.19 1957.9 L3882.64 1947.27 L3885.37 1944.47 L3895.99 1955.1 L3906.62 1944.47 L3909.37 1947.27 Z" fill="#000000" fill-rule="nonzero" fill-opacity="1"></path><path clip-path="url(#clip850)" d="M3921.73 1968.8 L3929.37 1968.8 L3929.37 1942.43 L3921.06 1944.1 L3921.06 1939.84 L3929.33 1938.18 L3934 1938.18 L3934 1968.8 L3941.64 1968.8 L3941.64 1972.74 L3921.73 1972.74 L3921.73 1968.8 Z" fill="#000000" fill-rule="nonzero" fill-opacity="1"></path><path clip-path="url(#clip850)" d="M3961.08 1941.25 Q3957.47 1941.25 3955.64 1944.82 Q3953.84 1948.36 3953.84 1955.49 Q3953.84 1962.6 3955.64 1966.16 Q3957.47 1969.7 3961.08 1969.7 Q3964.72 1969.7 3966.52 1966.16 Q3968.35 1962.6 3968.35 1955.49 Q3968.35 1948.36 3966.52 1944.82 Q3964.72 1941.25 3961.08 1941.25 M3961.08 1937.55 Q3966.89 1937.55 3969.95 1942.16 Q3973.03 1946.74 3973.03 1955.49 Q3973.03 1964.22 3969.95 1968.82 Q3966.89 1973.41 3961.08 1973.41 Q3955.27 1973.41 3952.2 1968.82 Q3949.14 1964.22 3949.14 1955.49 Q3949.14 1946.74 3952.2 1942.16 Q3955.27 1937.55 3961.08 1937.55 Z" fill="#000000" fill-rule="nonzero" fill-opacity="1"></path><path clip-path="url(#clip850)" d="M3974.21 1917.25 L3989.13 1917.25 L3989.13 1920.44 L3977.69 1920.44 L3977.69 1927.33 Q3978.52 1927.04 3979.35 1926.91 Q3980.18 1926.76 3981 1926.76 Q3985.71 1926.76 3988.45 1929.34 Q3991.2 1931.92 3991.2 1936.32 Q3991.2 1940.85 3988.38 1943.37 Q3985.56 1945.87 3980.42 1945.87 Q3978.65 1945.87 3976.81 1945.57 Q3974.99 1945.27 3973.03 1944.67 L3973.03 1940.85 Q3974.72 1941.77 3976.53 1942.22 Q3978.33 1942.67 3980.35 1942.67 Q3983.6 1942.67 3985.5 1940.96 Q3987.4 1939.25 3987.4 1936.32 Q3987.4 1933.38 3985.5 1931.67 Q3983.6 1929.96 3980.35 1929.96 Q3978.82 1929.96 3977.3 1930.3 Q3975.79 1930.64 3974.21 1931.35 L3974.21 1917.25 Z" fill="#000000" fill-rule="nonzero" fill-opacity="1"></path><polyline clip-path="url(#clip852)" style="stroke:#000000; stroke-linecap:round; stroke-linejoin:round; stroke-width:2; stroke-opacity:0.1; fill:none" points="263.084,1881.88 3952.76,1881.88 "></polyline>
<polyline clip-path="url(#clip852)" style="stroke:#000000; stroke-linecap:round; stroke-linejoin:round; stroke-width:2; stroke-opacity:0.1; fill:none" points="263.084,1366.95 3952.76,1366.95 "></polyline>
<polyline clip-path="url(#clip852)" style="stroke:#000000; stroke-linecap:round; stroke-linejoin:round; stroke-width:2; stroke-opacity:0.1; fill:none" points="263.084,852.03 3952.76,852.03 "></polyline>
<polyline clip-path="url(#clip852)" style="stroke:#000000; stroke-linecap:round; stroke-linejoin:round; stroke-width:2; stroke-opacity:0.1; fill:none" points="263.084,337.107 3952.76,337.107 "></polyline>
<polyline clip-path="url(#clip850)" style="stroke:#000000; stroke-linecap:round; stroke-linejoin:round; stroke-width:4; stroke-opacity:1; fill:none" points="263.084,1881.88 263.084,47.2441 "></polyline>
<polyline clip-path="url(#clip850)" style="stroke:#000000; stroke-linecap:round; stroke-linejoin:round; stroke-width:4; stroke-opacity:1; fill:none" points="263.084,1881.88 281.981,1881.88 "></polyline>
<polyline clip-path="url(#clip850)" style="stroke:#000000; stroke-linecap:round; stroke-linejoin:round; stroke-width:4; stroke-opacity:1; fill:none" points="263.084,1366.95 281.981,1366.95 "></polyline>
<polyline clip-path="url(#clip850)" style="stroke:#000000; stroke-linecap:round; stroke-linejoin:round; stroke-width:4; stroke-opacity:1; fill:none" points="263.084,852.03 281.981,852.03 "></polyline>
<polyline clip-path="url(#clip850)" style="stroke:#000000; stroke-linecap:round; stroke-linejoin:round; stroke-width:4; stroke-opacity:1; fill:none" points="263.084,337.107 281.981,337.107 "></polyline>
<path clip-path="url(#clip850)" d="M55.4226 1867.67 Q51.8115 1867.67 49.9828 1871.24 Q48.1773 1874.78 48.1773 1881.91 Q48.1773 1889.02 49.9828 1892.58 Q51.8115 1896.12 55.4226 1896.12 Q59.0569 1896.12 60.8624 1892.58 Q62.6911 1889.02 62.6911 1881.91 Q62.6911 1874.78 60.8624 1871.24 Q59.0569 1867.67 55.4226 1867.67 M55.4226 1863.97 Q61.2328 1863.97 64.2883 1868.58 Q67.367 1873.16 67.367 1881.91 Q67.367 1890.64 64.2883 1895.24 Q61.2328 1899.83 55.4226 1899.83 Q49.6125 1899.83 46.5338 1895.24 Q43.4782 1890.64 43.4782 1881.91 Q43.4782 1873.16 46.5338 1868.58 Q49.6125 1863.97 55.4226 1863.97 Z" fill="#000000" fill-rule="nonzero" fill-opacity="1"></path><path clip-path="url(#clip850)" d="M75.5845 1893.28 L80.4688 1893.28 L80.4688 1899.16 L75.5845 1899.16 L75.5845 1893.28 Z" fill="#000000" fill-rule="nonzero" fill-opacity="1"></path><path clip-path="url(#clip850)" d="M100.654 1867.67 Q97.0428 1867.67 95.2141 1871.24 Q93.4085 1874.78 93.4085 1881.91 Q93.4085 1889.02 95.2141 1892.58 Q97.0428 1896.12 100.654 1896.12 Q104.288 1896.12 106.094 1892.58 Q107.922 1889.02 107.922 1881.91 Q107.922 1874.78 106.094 1871.24 Q104.288 1867.67 100.654 1867.67 M100.654 1863.97 Q106.464 1863.97 109.52 1868.58 Q112.598 1873.16 112.598 1881.91 Q112.598 1890.64 109.52 1895.24 Q106.464 1899.83 100.654 1899.83 Q94.8437 1899.83 91.765 1895.24 Q88.7095 1890.64 88.7095 1881.91 Q88.7095 1873.16 91.765 1868.58 Q94.8437 1863.97 100.654 1863.97 Z" fill="#000000" fill-rule="nonzero" fill-opacity="1"></path><path clip-path="url(#clip850)" d="M130.816 1867.67 Q127.205 1867.67 125.376 1871.24 Q123.57 1874.78 123.57 1881.91 Q123.57 1889.02 125.376 1892.58 Q127.205 1896.12 130.816 1896.12 Q134.45 1896.12 136.256 1892.58 Q138.084 1889.02 138.084 1881.91 Q138.084 1874.78 136.256 1871.24 Q134.45 1867.67 130.816 1867.67 M130.816 1863.97 Q136.626 1863.97 139.681 1868.58 Q142.76 1873.16 142.76 1881.91 Q142.76 1890.64 139.681 1895.24 Q136.626 1899.83 130.816 1899.83 Q125.006 1899.83 121.927 1895.24 Q118.871 1890.64 118.871 1881.91 Q118.871 1873.16 121.927 1868.58 Q125.006 1863.97 130.816 1863.97 Z" fill="#000000" fill-rule="nonzero" fill-opacity="1"></path><path clip-path="url(#clip850)" d="M160.978 1867.67 Q157.367 1867.67 155.538 1871.24 Q153.732 1874.78 153.732 1881.91 Q153.732 1889.02 155.538 1892.58 Q157.367 1896.12 160.978 1896.12 Q164.612 1896.12 166.417 1892.58 Q168.246 1889.02 168.246 1881.91 Q168.246 1874.78 166.417 1871.24 Q164.612 1867.67 160.978 1867.67 M160.978 1863.97 Q166.788 1863.97 169.843 1868.58 Q172.922 1873.16 172.922 1881.91 Q172.922 1890.64 169.843 1895.24 Q166.788 1899.83 160.978 1899.83 Q155.167 1899.83 152.089 1895.24 Q149.033 1890.64 149.033 1881.91 Q149.033 1873.16 152.089 1868.58 Q155.167 1863.97 160.978 1863.97 Z" fill="#000000" fill-rule="nonzero" fill-opacity="1"></path><path clip-path="url(#clip850)" d="M191.139 1867.67 Q187.528 1867.67 185.7 1871.24 Q183.894 1874.78 183.894 1881.91 Q183.894 1889.02 185.7 1892.58 Q187.528 1896.12 191.139 1896.12 Q194.774 1896.12 196.579 1892.58 Q198.408 1889.02 198.408 1881.91 Q198.408 1874.78 196.579 1871.24 Q194.774 1867.67 191.139 1867.67 M191.139 1863.97 Q196.95 1863.97 200.005 1868.58 Q203.084 1873.16 203.084 1881.91 Q203.084 1890.64 200.005 1895.24 Q196.95 1899.83 191.139 1899.83 Q185.329 1899.83 182.251 1895.24 Q179.195 1890.64 179.195 1881.91 Q179.195 1873.16 182.251 1868.58 Q185.329 1863.97 191.139 1863.97 Z" fill="#000000" fill-rule="nonzero" fill-opacity="1"></path><path clip-path="url(#clip850)" d="M57.0198 1352.75 Q53.4087 1352.75 51.58 1356.32 Q49.7745 1359.86 49.7745 1366.99 Q49.7745 1374.09 51.58 1377.66 Q53.4087 1381.2 57.0198 1381.2 Q60.6541 1381.2 62.4596 1377.66 Q64.2883 1374.09 64.2883 1366.99 Q64.2883 1359.86 62.4596 1356.32 Q60.6541 1352.75 57.0198 1352.75 M57.0198 1349.05 Q62.83 1349.05 65.8855 1353.65 Q68.9642 1358.24 68.9642 1366.99 Q68.9642 1375.71 65.8855 1380.32 Q62.83 1384.9 57.0198 1384.9 Q51.2097 1384.9 48.131 1380.32 Q45.0754 1375.71 45.0754 1366.99 Q45.0754 1358.24 48.131 1353.65 Q51.2097 1349.05 57.0198 1349.05 Z" fill="#000000" fill-rule="nonzero" fill-opacity="1"></path><path clip-path="url(#clip850)" d="M77.1818 1378.35 L82.066 1378.35 L82.066 1384.23 L77.1818 1384.23 L77.1818 1378.35 Z" fill="#000000" fill-rule="nonzero" fill-opacity="1"></path><path clip-path="url(#clip850)" d="M102.251 1352.75 Q98.64 1352.75 96.8113 1356.32 Q95.0057 1359.86 95.0057 1366.99 Q95.0057 1374.09 96.8113 1377.66 Q98.64 1381.2 102.251 1381.2 Q105.885 1381.2 107.691 1377.66 Q109.52 1374.09 109.52 1366.99 Q109.52 1359.86 107.691 1356.32 Q105.885 1352.75 102.251 1352.75 M102.251 1349.05 Q108.061 1349.05 111.117 1353.65 Q114.195 1358.24 114.195 1366.99 Q114.195 1375.71 111.117 1380.32 Q108.061 1384.9 102.251 1384.9 Q96.4409 1384.9 93.3622 1380.32 Q90.3067 1375.71 90.3067 1366.99 Q90.3067 1358.24 93.3622 1353.65 Q96.4409 1349.05 102.251 1349.05 Z" fill="#000000" fill-rule="nonzero" fill-opacity="1"></path><path clip-path="url(#clip850)" d="M132.413 1352.75 Q128.802 1352.75 126.973 1356.32 Q125.168 1359.86 125.168 1366.99 Q125.168 1374.09 126.973 1377.66 Q128.802 1381.2 132.413 1381.2 Q136.047 1381.2 137.853 1377.66 Q139.681 1374.09 139.681 1366.99 Q139.681 1359.86 137.853 1356.32 Q136.047 1352.75 132.413 1352.75 M132.413 1349.05 Q138.223 1349.05 141.279 1353.65 Q144.357 1358.24 144.357 1366.99 Q144.357 1375.71 141.279 1380.32 Q138.223 1384.9 132.413 1384.9 Q126.603 1384.9 123.524 1380.32 Q120.469 1375.71 120.469 1366.99 Q120.469 1358.24 123.524 1353.65 Q126.603 1349.05 132.413 1349.05 Z" fill="#000000" fill-rule="nonzero" fill-opacity="1"></path><path clip-path="url(#clip850)" d="M162.575 1352.75 Q158.964 1352.75 157.135 1356.32 Q155.329 1359.86 155.329 1366.99 Q155.329 1374.09 157.135 1377.66 Q158.964 1381.2 162.575 1381.2 Q166.209 1381.2 168.015 1377.66 Q169.843 1374.09 169.843 1366.99 Q169.843 1359.86 168.015 1356.32 Q166.209 1352.75 162.575 1352.75 M162.575 1349.05 Q168.385 1349.05 171.441 1353.65 Q174.519 1358.24 174.519 1366.99 Q174.519 1375.71 171.441 1380.32 Q168.385 1384.9 162.575 1384.9 Q156.765 1384.9 153.686 1380.32 Q150.63 1375.71 150.63 1366.99 Q150.63 1358.24 153.686 1353.65 Q156.765 1349.05 162.575 1349.05 Z" fill="#000000" fill-rule="nonzero" fill-opacity="1"></path><path clip-path="url(#clip850)" d="M186.765 1380.3 L203.084 1380.3 L203.084 1384.23 L181.14 1384.23 L181.14 1380.3 Q183.802 1377.54 188.385 1372.91 Q192.991 1368.26 194.172 1366.92 Q196.417 1364.39 197.297 1362.66 Q198.2 1360.9 198.2 1359.21 Q198.2 1356.46 196.255 1354.72 Q194.334 1352.98 191.232 1352.98 Q189.033 1352.98 186.579 1353.75 Q184.149 1354.51 181.371 1356.06 L181.371 1351.34 Q184.195 1350.21 186.649 1349.63 Q189.102 1349.05 191.139 1349.05 Q196.51 1349.05 199.704 1351.73 Q202.899 1354.42 202.899 1358.91 Q202.899 1361.04 202.088 1362.96 Q201.301 1364.86 199.195 1367.45 Q198.616 1368.12 195.514 1371.34 Q192.413 1374.53 186.765 1380.3 Z" fill="#000000" fill-rule="nonzero" fill-opacity="1"></path><path clip-path="url(#clip850)" d="M54.9365 837.829 Q51.3254 837.829 49.4967 841.393 Q47.6912 844.935 47.6912 852.065 Q47.6912 859.171 49.4967 862.736 Q51.3254 866.278 54.9365 866.278 Q58.5707 866.278 60.3763 862.736 Q62.205 859.171 62.205 852.065 Q62.205 844.935 60.3763 841.393 Q58.5707 837.829 54.9365 837.829 M54.9365 834.125 Q60.7467 834.125 63.8022 838.731 Q66.8809 843.315 66.8809 852.065 Q66.8809 860.791 63.8022 865.398 Q60.7467 869.981 54.9365 869.981 Q49.1264 869.981 46.0477 865.398 Q42.9921 860.791 42.9921 852.065 Q42.9921 843.315 46.0477 838.731 Q49.1264 834.125 54.9365 834.125 Z" fill="#000000" fill-rule="nonzero" fill-opacity="1"></path><path clip-path="url(#clip850)" d="M75.0984 863.43 L79.9827 863.43 L79.9827 869.31 L75.0984 869.31 L75.0984 863.43 Z" fill="#000000" fill-rule="nonzero" fill-opacity="1"></path><path clip-path="url(#clip850)" d="M100.168 837.829 Q96.5567 837.829 94.728 841.393 Q92.9224 844.935 92.9224 852.065 Q92.9224 859.171 94.728 862.736 Q96.5567 866.278 100.168 866.278 Q103.802 866.278 105.608 862.736 Q107.436 859.171 107.436 852.065 Q107.436 844.935 105.608 841.393 Q103.802 837.829 100.168 837.829 M100.168 834.125 Q105.978 834.125 109.033 838.731 Q112.112 843.315 112.112 852.065 Q112.112 860.791 109.033 865.398 Q105.978 869.981 100.168 869.981 Q94.3576 869.981 91.2789 865.398 Q88.2234 860.791 88.2234 852.065 Q88.2234 843.315 91.2789 838.731 Q94.3576 834.125 100.168 834.125 Z" fill="#000000" fill-rule="nonzero" fill-opacity="1"></path><path clip-path="url(#clip850)" d="M130.33 837.829 Q126.719 837.829 124.89 841.393 Q123.084 844.935 123.084 852.065 Q123.084 859.171 124.89 862.736 Q126.719 866.278 130.33 866.278 Q133.964 866.278 135.769 862.736 Q137.598 859.171 137.598 852.065 Q137.598 844.935 135.769 841.393 Q133.964 837.829 130.33 837.829 M130.33 834.125 Q136.14 834.125 139.195 838.731 Q142.274 843.315 142.274 852.065 Q142.274 860.791 139.195 865.398 Q136.14 869.981 130.33 869.981 Q124.519 869.981 121.441 865.398 Q118.385 860.791 118.385 852.065 Q118.385 843.315 121.441 838.731 Q124.519 834.125 130.33 834.125 Z" fill="#000000" fill-rule="nonzero" fill-opacity="1"></path><path clip-path="url(#clip850)" d="M160.491 837.829 Q156.88 837.829 155.052 841.393 Q153.246 844.935 153.246 852.065 Q153.246 859.171 155.052 862.736 Q156.88 866.278 160.491 866.278 Q164.126 866.278 165.931 862.736 Q167.76 859.171 167.76 852.065 Q167.76 844.935 165.931 841.393 Q164.126 837.829 160.491 837.829 M160.491 834.125 Q166.302 834.125 169.357 838.731 Q172.436 843.315 172.436 852.065 Q172.436 860.791 169.357 865.398 Q166.302 869.981 160.491 869.981 Q154.681 869.981 151.603 865.398 Q148.547 860.791 148.547 852.065 Q148.547 843.315 151.603 838.731 Q154.681 834.125 160.491 834.125 Z" fill="#000000" fill-rule="nonzero" fill-opacity="1"></path><path clip-path="url(#clip850)" d="M193.501 838.824 L181.695 857.273 L193.501 857.273 L193.501 838.824 M192.274 834.75 L198.153 834.75 L198.153 857.273 L203.084 857.273 L203.084 861.162 L198.153 861.162 L198.153 869.31 L193.501 869.31 L193.501 861.162 L177.899 861.162 L177.899 856.648 L192.274 834.75 Z" fill="#000000" fill-rule="nonzero" fill-opacity="1"></path><path clip-path="url(#clip850)" d="M55.2606 322.906 Q51.6495 322.906 49.8208 326.471 Q48.0152 330.012 48.0152 337.142 Q48.0152 344.248 49.8208 347.813 Q51.6495 351.355 55.2606 351.355 Q58.8948 351.355 60.7004 347.813 Q62.5291 344.248 62.5291 337.142 Q62.5291 330.012 60.7004 326.471 Q58.8948 322.906 55.2606 322.906 M55.2606 319.202 Q61.0707 319.202 64.1263 323.809 Q67.205 328.392 67.205 337.142 Q67.205 345.869 64.1263 350.475 Q61.0707 355.058 55.2606 355.058 Q49.4504 355.058 46.3717 350.475 Q43.3162 345.869 43.3162 337.142 Q43.3162 328.392 46.3717 323.809 Q49.4504 319.202 55.2606 319.202 Z" fill="#000000" fill-rule="nonzero" fill-opacity="1"></path><path clip-path="url(#clip850)" d="M75.4225 348.508 L80.3067 348.508 L80.3067 354.387 L75.4225 354.387 L75.4225 348.508 Z" fill="#000000" fill-rule="nonzero" fill-opacity="1"></path><path clip-path="url(#clip850)" d="M100.492 322.906 Q96.8807 322.906 95.052 326.471 Q93.2465 330.012 93.2465 337.142 Q93.2465 344.248 95.052 347.813 Q96.8807 351.355 100.492 351.355 Q104.126 351.355 105.932 347.813 Q107.76 344.248 107.76 337.142 Q107.76 330.012 105.932 326.471 Q104.126 322.906 100.492 322.906 M100.492 319.202 Q106.302 319.202 109.358 323.809 Q112.436 328.392 112.436 337.142 Q112.436 345.869 109.358 350.475 Q106.302 355.058 100.492 355.058 Q94.6817 355.058 91.603 350.475 Q88.5474 345.869 88.5474 337.142 Q88.5474 328.392 91.603 323.809 Q94.6817 319.202 100.492 319.202 Z" fill="#000000" fill-rule="nonzero" fill-opacity="1"></path><path clip-path="url(#clip850)" d="M130.654 322.906 Q127.043 322.906 125.214 326.471 Q123.408 330.012 123.408 337.142 Q123.408 344.248 125.214 347.813 Q127.043 351.355 130.654 351.355 Q134.288 351.355 136.093 347.813 Q137.922 344.248 137.922 337.142 Q137.922 330.012 136.093 326.471 Q134.288 322.906 130.654 322.906 M130.654 319.202 Q136.464 319.202 139.519 323.809 Q142.598 328.392 142.598 337.142 Q142.598 345.869 139.519 350.475 Q136.464 355.058 130.654 355.058 Q124.844 355.058 121.765 350.475 Q118.709 345.869 118.709 337.142 Q118.709 328.392 121.765 323.809 Q124.844 319.202 130.654 319.202 Z" fill="#000000" fill-rule="nonzero" fill-opacity="1"></path><path clip-path="url(#clip850)" d="M160.816 322.906 Q157.204 322.906 155.376 326.471 Q153.57 330.012 153.57 337.142 Q153.57 344.248 155.376 347.813 Q157.204 351.355 160.816 351.355 Q164.45 351.355 166.255 347.813 Q168.084 344.248 168.084 337.142 Q168.084 330.012 166.255 326.471 Q164.45 322.906 160.816 322.906 M160.816 319.202 Q166.626 319.202 169.681 323.809 Q172.76 328.392 172.76 337.142 Q172.76 345.869 169.681 350.475 Q166.626 355.058 160.816 355.058 Q155.005 355.058 151.927 350.475 Q148.871 345.869 148.871 337.142 Q148.871 328.392 151.927 323.809 Q155.005 319.202 160.816 319.202 Z" fill="#000000" fill-rule="nonzero" fill-opacity="1"></path><path clip-path="url(#clip850)" d="M191.556 335.244 Q188.408 335.244 186.556 337.397 Q184.727 339.549 184.727 343.299 Q184.727 347.026 186.556 349.202 Q188.408 351.355 191.556 351.355 Q194.704 351.355 196.533 349.202 Q198.385 347.026 198.385 343.299 Q198.385 339.549 196.533 337.397 Q194.704 335.244 191.556 335.244 M200.839 320.591 L200.839 324.85 Q199.079 324.017 197.274 323.577 Q195.491 323.137 193.732 323.137 Q189.102 323.137 186.649 326.262 Q184.218 329.387 183.871 335.707 Q185.237 333.693 187.297 332.628 Q189.357 331.54 191.834 331.54 Q197.042 331.54 200.051 334.711 Q203.084 337.86 203.084 343.299 Q203.084 348.623 199.936 351.841 Q196.788 355.058 191.556 355.058 Q185.561 355.058 182.39 350.475 Q179.218 345.869 179.218 337.142 Q179.218 328.948 183.107 324.086 Q186.996 319.202 193.547 319.202 Q195.306 319.202 197.089 319.549 Q198.894 319.897 200.839 320.591 Z" fill="#000000" fill-rule="nonzero" fill-opacity="1"></path><polyline clip-path="url(#clip852)" style="stroke:#009af9; stroke-linecap:round; stroke-linejoin:round; stroke-width:4; stroke-opacity:1; fill:none" points="367.509,206.129 402.668,47.2441 437.828,51.341 472.988,52.6964 508.148,53.6115 543.308,54.5468 578.467,55.6108 613.627,56.8498 648.787,58.3049 683.947,60.0238 719.107,62.0642 754.267,64.496 789.426,67.4033 824.586,70.8861 859.746,75.0624 894.906,80.0692 930.066,86.0645 965.226,93.2274 1000.39,101.757 1035.55,111.873 1070.71,123.808 1105.86,137.803 1141.02,154.1 1176.18,172.931 1211.34,194.502 1246.5,218.978 1281.66,246.471 1316.82,277.024 1351.98,310.596 1387.14,347.061 1422.3,386.205 1457.46,427.731 1492.62,471.272 1527.78,516.412 1562.94,562.701 1598.1,609.681 1633.26,656.906 1668.42,703.96 1703.58,750.468 1738.74,796.104 1773.9,840.599 1809.06,883.739 1844.22,925.363 1879.38,965.356 1914.54,1003.65 1949.7,1040.2 1984.86,1075.01 2020.02,1108.09 2055.18,1139.49 2090.34,1169.24 2125.5,1197.42 2160.66,1224.08 2195.82,1249.3 2230.98,1273.16 2266.14,1295.71 2301.3,1317.05 2336.46,1337.23 2371.62,1356.33 2406.78,1374.41 2441.94,1391.53 2477.1,1407.75 2512.26,1423.14 2547.42,1437.73 2582.58,1451.59 2617.74,1464.75 2652.9,1477.26 2688.06,1489.16 2723.22,1500.49 2758.38,1511.28 2793.54,1521.56 2828.7,1531.37 2863.86,1540.74 2899.02,1549.68 2934.18,1558.23 2969.34,1566.41 3004.5,1574.24 3039.66,1581.73 3074.82,1588.91 3109.97,1595.8 3145.13,1602.41 3180.29,1608.76 3215.45,1614.86 3250.61,1620.72 3285.77,1626.36 3320.93,1631.78 3356.09,1637 3391.25,1642.04 3426.41,1646.89 3461.57,1651.57 3496.73,1656.08 3531.89,1660.44 3567.05,1664.65 3602.21,1668.71 3637.37,1672.64 3672.53,1676.45 3707.69,1680.13 3742.85,1683.69 3778.01,1687.14 3813.17,1690.48 "></polyline>
<polyline clip-path="url(#clip852)" style="stroke:#e26f46; stroke-linecap:round; stroke-linejoin:round; stroke-width:4; stroke-opacity:1; fill:none" points="367.509,346.721 402.668,736.334 437.828,746.521 472.988,746.634 508.148,746.445 543.308,746.32 578.467,746.289 613.627,746.373 648.787,746.597 683.947,746.992 719.107,747.596 754.267,748.454 789.426,749.62 824.586,751.162 859.746,753.155 894.906,755.688 930.066,758.866 965.226,762.805 1000.39,767.635 1035.55,773.498 1070.71,780.546 1105.86,788.935 1141.02,798.821 1176.18,810.352 1211.34,823.66 1246.5,838.847 1281.66,855.981 1316.82,875.082 1351.98,896.118 1387.14,918.999 1422.3,943.579 1457.46,969.658 1492.62,996.996 1527.78,1025.32 1562.94,1054.34 1598.1,1083.76 1633.26,1113.3 1668.42,1142.7 1703.58,1171.72 1738.74,1200.18 1773.9,1227.89 1809.06,1254.74 1844.22,1280.62 1879.38,1305.48 1914.54,1329.28 1949.7,1351.99 1984.86,1373.62 2020.02,1394.17 2055.18,1413.69 2090.34,1432.18 2125.5,1449.71 2160.66,1466.3 2195.82,1482.01 2230.98,1496.87 2266.14,1510.93 2301.3,1524.24 2336.46,1536.83 2371.62,1548.76 2406.78,1560.06 2441.94,1570.77 2477.1,1580.93 2512.26,1590.56 2547.42,1599.71 2582.58,1608.4 2617.74,1616.66 2652.9,1624.52 2688.06,1631.99 2723.22,1639.11 2758.38,1645.9 2793.54,1652.38 2828.7,1658.55 2863.86,1664.46 2899.02,1670.09 2934.18,1675.49 2969.34,1680.65 3004.5,1685.59 3039.66,1690.32 3074.82,1694.86 3109.97,1699.22 3145.13,1703.4 3180.29,1707.41 3215.45,1711.27 3250.61,1714.98 3285.77,1718.56 3320.93,1721.99 3356.09,1725.3 3391.25,1728.49 3426.41,1731.57 3461.57,1734.54 3496.73,1737.4 3531.89,1740.17 3567.05,1742.84 3602.21,1745.43 3637.37,1747.92 3672.53,1750.34 3707.69,1752.68 3742.85,1754.94 3778.01,1757.14 3813.17,1759.26 "></polyline>
<polyline clip-path="url(#clip852)" style="stroke:#3da44d; stroke-linecap:round; stroke-linejoin:round; stroke-width:4; stroke-opacity:1; fill:none" points="367.509,272.742 402.668,272.742 437.828,272.742 472.988,272.742 508.148,272.742 543.308,272.742 578.467,272.742 613.627,272.742 648.787,272.742 683.947,272.742 719.107,272.742 754.267,272.742 789.426,272.742 824.586,272.742 859.746,272.742 894.906,272.742 930.066,272.742 965.226,272.742 1000.39,272.742 1035.55,272.742 1070.71,272.742 1105.86,272.742 1141.02,272.742 1176.18,272.742 1211.34,272.742 1246.5,272.742 1281.66,272.742 1316.82,272.742 1351.98,272.742 1387.14,272.742 1422.3,272.742 1457.46,272.742 1492.62,272.742 1527.78,272.742 1562.94,272.742 1598.1,272.742 1633.26,272.742 1668.42,272.742 1703.58,272.742 1738.74,272.742 1773.9,272.742 1809.06,272.742 1844.22,272.742 1879.38,272.742 1914.54,272.742 1949.7,272.742 1984.86,272.742 2020.02,272.742 2055.18,272.742 2090.34,272.742 2125.5,272.742 2160.66,272.742 2195.82,272.742 2230.98,272.742 2266.14,272.742 2301.3,272.742 2336.46,272.742 2371.62,272.742 2406.78,272.742 2441.94,272.742 2477.1,272.742 2512.26,272.742 2547.42,272.742 2582.58,272.742 2617.74,272.742 2652.9,272.742 2688.06,272.742 2723.22,272.742 2758.38,272.742 2793.54,272.742 2828.7,272.742 2863.86,272.742 2899.02,272.742 2934.18,272.742 2969.34,272.742 3004.5,272.742 3039.66,272.742 3074.82,272.742 3109.97,272.742 3145.13,272.742 3180.29,272.742 3215.45,272.742 3250.61,272.742 3285.77,272.742 3320.93,272.742 3356.09,272.742 3391.25,272.742 3426.41,272.742 3461.57,272.742 3496.73,272.742 3531.89,272.742 3567.05,272.742 3602.21,272.742 3637.37,272.742 3672.53,272.742 3707.69,272.742 3742.85,272.742 3778.01,272.742 3813.17,272.742 3848.33,272.742 "></polyline>
<polyline clip-path="url(#clip852)" style="stroke:#c271d2; stroke-linecap:round; stroke-linejoin:round; stroke-width:4; stroke-opacity:1; fill:none" points="367.509,841.627 402.668,841.627 437.828,841.627 472.988,841.627 508.148,841.627 543.308,841.627 578.467,841.627 613.627,841.627 648.787,841.627 683.947,841.627 719.107,841.627 754.267,841.627 789.426,841.627 824.586,841.627 859.746,841.627 894.906,841.627 930.066,841.627 965.226,841.627 1000.39,841.627 1035.55,841.627 1070.71,841.627 1105.86,841.627 1141.02,841.627 1176.18,841.627 1211.34,841.627 1246.5,841.627 1281.66,841.627 1316.82,841.627 1351.98,841.627 1387.14,841.627 1422.3,841.627 1457.46,841.627 1492.62,841.627 1527.78,841.627 1562.94,841.627 1598.1,841.627 1633.26,841.627 1668.42,841.627 1703.58,841.627 1738.74,841.627 1773.9,841.627 1809.06,841.627 1844.22,841.627 1879.38,841.627 1914.54,841.627 1949.7,841.627 1984.86,841.627 2020.02,841.627 2055.18,841.627 2090.34,841.627 2125.5,841.627 2160.66,841.627 2195.82,841.627 2230.98,841.627 2266.14,841.627 2301.3,841.627 2336.46,841.627 2371.62,841.627 2406.78,841.627 2441.94,841.627 2477.1,841.627 2512.26,841.627 2547.42,841.627 2582.58,841.627 2617.74,841.627 2652.9,841.627 2688.06,841.627 2723.22,841.627 2758.38,841.627 2793.54,841.627 2828.7,841.627 2863.86,841.627 2899.02,841.627 2934.18,841.627 2969.34,841.627 3004.5,841.627 3039.66,841.627 3074.82,841.627 3109.97,841.627 3145.13,841.627 3180.29,841.627 3215.45,841.627 3250.61,841.627 3285.77,841.627 3320.93,841.627 3356.09,841.627 3391.25,841.627 3426.41,841.627 3461.57,841.627 3496.73,841.627 3531.89,841.627 3567.05,841.627 3602.21,841.627 3637.37,841.627 3672.53,841.627 3707.69,841.627 3742.85,841.627 3778.01,841.627 3813.17,841.627 3848.33,841.627 "></polyline>
<path clip-path="url(#clip850)" d="M386.073 1820.72 L809.183 1820.72 L809.183 1561.52 L386.073 1561.52  Z" fill="#ffffff" fill-rule="evenodd" fill-opacity="1"></path>
<polyline clip-path="url(#clip850)" style="stroke:#000000; stroke-linecap:round; stroke-linejoin:round; stroke-width:4; stroke-opacity:1; fill:none" points="386.073,1820.72 809.183,1820.72 809.183,1561.52 386.073,1561.52 386.073,1820.72 "></polyline>
<polyline clip-path="url(#clip850)" style="stroke:#009af9; stroke-linecap:round; stroke-linejoin:round; stroke-width:4; stroke-opacity:1; fill:none" points="427.069,1613.36 673.047,1613.36 "></polyline>
<path clip-path="url(#clip850)" d="M727.886 1633.05 Q726.081 1637.68 724.368 1639.09 Q722.655 1640.5 719.784 1640.5 L716.382 1640.5 L716.382 1636.94 L718.882 1636.94 Q720.641 1636.94 721.613 1636.1 Q722.585 1635.27 723.766 1632.17 L724.53 1630.22 L714.044 1604.72 L718.558 1604.72 L726.659 1624.99 L734.761 1604.72 L739.275 1604.72 L727.886 1633.05 Z" fill="#000000" fill-rule="nonzero" fill-opacity="1"></path><path clip-path="url(#clip850)" d="M746.567 1626.71 L754.206 1626.71 L754.206 1600.34 L745.895 1602.01 L745.895 1597.75 L754.159 1596.08 L758.835 1596.08 L758.835 1626.71 L766.474 1626.71 L766.474 1630.64 L746.567 1630.64 L746.567 1626.71 Z" fill="#000000" fill-rule="nonzero" fill-opacity="1"></path><polyline clip-path="url(#clip850)" style="stroke:#e26f46; stroke-linecap:round; stroke-linejoin:round; stroke-width:4; stroke-opacity:1; fill:none" points="427.069,1665.2 673.047,1665.2 "></polyline>
<path clip-path="url(#clip850)" d="M727.886 1684.89 Q726.081 1689.52 724.368 1690.93 Q722.655 1692.34 719.784 1692.34 L716.382 1692.34 L716.382 1688.78 L718.882 1688.78 Q720.641 1688.78 721.613 1687.94 Q722.585 1687.11 723.766 1684.01 L724.53 1682.06 L714.044 1656.56 L718.558 1656.56 L726.659 1676.83 L734.761 1656.56 L739.275 1656.56 L727.886 1684.89 Z" fill="#000000" fill-rule="nonzero" fill-opacity="1"></path><path clip-path="url(#clip850)" d="M749.784 1678.55 L766.104 1678.55 L766.104 1682.48 L744.159 1682.48 L744.159 1678.55 Q746.821 1675.79 751.405 1671.16 Q756.011 1666.51 757.192 1665.17 Q759.437 1662.64 760.317 1660.91 Q761.219 1659.15 761.219 1657.46 Q761.219 1654.7 759.275 1652.97 Q757.354 1651.23 754.252 1651.23 Q752.053 1651.23 749.599 1652 Q747.169 1652.76 744.391 1654.31 L744.391 1649.59 Q747.215 1648.45 749.669 1647.87 Q752.122 1647.3 754.159 1647.3 Q759.53 1647.3 762.724 1649.98 Q765.918 1652.67 765.918 1657.16 Q765.918 1659.29 765.108 1661.21 Q764.321 1663.11 762.215 1665.7 Q761.636 1666.37 758.534 1669.59 Q755.432 1672.78 749.784 1678.55 Z" fill="#000000" fill-rule="nonzero" fill-opacity="1"></path><polyline clip-path="url(#clip850)" style="stroke:#3da44d; stroke-linecap:round; stroke-linejoin:round; stroke-width:4; stroke-opacity:1; fill:none" points="427.069,1717.04 673.047,1717.04 "></polyline>
<path clip-path="url(#clip850)" d="M727.886 1736.73 Q726.081 1741.36 724.368 1742.77 Q722.655 1744.18 719.784 1744.18 L716.382 1744.18 L716.382 1740.62 L718.882 1740.62 Q720.641 1740.62 721.613 1739.78 Q722.585 1738.95 723.766 1735.85 L724.53 1733.9 L714.044 1708.4 L718.558 1708.4 L726.659 1728.67 L734.761 1708.4 L739.275 1708.4 L727.886 1736.73 Z" fill="#000000" fill-rule="nonzero" fill-opacity="1"></path><path clip-path="url(#clip850)" d="M759.923 1715.69 Q763.28 1716.4 765.155 1718.67 Q767.053 1720.94 767.053 1724.27 Q767.053 1729.39 763.534 1732.19 Q760.016 1734.99 753.534 1734.99 Q751.358 1734.99 749.044 1734.55 Q746.752 1734.14 744.298 1733.28 L744.298 1728.77 Q746.243 1729.9 748.557 1730.48 Q750.872 1731.06 753.395 1731.06 Q757.794 1731.06 760.085 1729.32 Q762.4 1727.59 762.4 1724.27 Q762.4 1721.22 760.247 1719.51 Q758.118 1717.77 754.298 1717.77 L750.27 1717.77 L750.27 1713.93 L754.483 1713.93 Q757.932 1713.93 759.761 1712.56 Q761.59 1711.17 761.59 1708.58 Q761.59 1705.92 759.692 1704.51 Q757.817 1703.07 754.298 1703.07 Q752.377 1703.07 750.178 1703.49 Q747.979 1703.9 745.34 1704.78 L745.34 1700.62 Q748.002 1699.88 750.317 1699.51 Q752.655 1699.14 754.715 1699.14 Q760.039 1699.14 763.141 1701.57 Q766.243 1703.97 766.243 1708.09 Q766.243 1710.96 764.599 1712.96 Q762.956 1714.92 759.923 1715.69 Z" fill="#000000" fill-rule="nonzero" fill-opacity="1"></path><polyline clip-path="url(#clip850)" style="stroke:#c271d2; stroke-linecap:round; stroke-linejoin:round; stroke-width:4; stroke-opacity:1; fill:none" points="427.069,1768.88 673.047,1768.88 "></polyline>
<path clip-path="url(#clip850)" d="M727.886 1788.57 Q726.081 1793.2 724.368 1794.61 Q722.655 1796.02 719.784 1796.02 L716.382 1796.02 L716.382 1792.46 L718.882 1792.46 Q720.641 1792.46 721.613 1791.62 Q722.585 1790.79 723.766 1787.69 L724.53 1785.74 L714.044 1760.24 L718.558 1760.24 L726.659 1780.51 L734.761 1760.24 L739.275 1760.24 L727.886 1788.57 Z" fill="#000000" fill-rule="nonzero" fill-opacity="1"></path><path clip-path="url(#clip850)" d="M758.604 1755.68 L746.798 1774.12 L758.604 1774.12 L758.604 1755.68 M757.377 1751.6 L763.256 1751.6 L763.256 1774.12 L768.187 1774.12 L768.187 1778.01 L763.256 1778.01 L763.256 1786.16 L758.604 1786.16 L758.604 1778.01 L743.002 1778.01 L743.002 1773.5 L757.377 1751.6 Z" fill="#000000" fill-rule="nonzero" fill-opacity="1"></path></svg>