<svg xmlns="http://www.w3.org/2000/svg" xmlns:xlink="http://www.w3.org/1999/xlink" width="1000" height="500" viewBox="0 0 4000 2000">
<defs>
  <clipPath id="clip690">
    <rect x="0" y="0" width="4000" height="2000"></rect>
  </clipPath>
</defs>
<path clip-path="url(#clip690)" d="M0 2000 L4000 2000 L4000 0 L0 0  Z" fill="#ffffff" fill-rule="evenodd" fill-opacity="1"></path>
<defs>
  <clipPath id="clip691">
    <rect x="800" y="0" width="2801" height="2000"></rect>
  </clipPath>
</defs>
<path clip-path="url(#clip690)" d="M263.084 1881.88 L3952.76 1881.88 L3952.76 47.2441 L263.084 47.2441  Z" fill="#ffffff" fill-rule="evenodd" fill-opacity="1"></path>
<defs>
  <clipPath id="clip692">
    <rect x="263" y="47" width="3691" height="1836"></rect>
  </clipPath>
</defs>
<polyline clip-path="url(#clip692)" style="stroke:#000000; stroke-linecap:round; stroke-linejoin:round; stroke-width:2; stroke-opacity:0.1; fill:none" points="367.509,1881.88 367.509,47.2441 "></polyline>
<polyline clip-path="url(#clip692)" style="stroke:#000000; stroke-linecap:round; stroke-linejoin:round; stroke-width:2; stroke-opacity:0.1; fill:none" points="1246.5,1881.88 1246.5,47.2441 "></polyline>
<polyline clip-path="url(#clip692)" style="stroke:#000000; stroke-linecap:round; stroke-linejoin:round; stroke-width:2; stroke-opacity:0.1; fill:none" points="2125.5,1881.88 2125.5,47.2441 "></polyline>
<polyline clip-path="url(#clip692)" style="stroke:#000000; stroke-linecap:round; stroke-linejoin:round; stroke-width:2; stroke-opacity:0.1; fill:none" points="3004.5,1881.88 3004.5,47.2441 "></polyline>
<polyline clip-path="url(#clip692)" style="stroke:#000000; stroke-linecap:round; stroke-linejoin:round; stroke-width:2; stroke-opacity:0.1; fill:none" points="3883.49,1881.88 3883.49,47.2441 "></polyline>
<polyline clip-path="url(#clip690)" style="stroke:#000000; stroke-linecap:round; stroke-linejoin:round; stroke-width:4; stroke-opacity:1; fill:none" points="263.084,1881.88 3952.76,1881.88 "></polyline>
<polyline clip-path="url(#clip690)" style="stroke:#000000; stroke-linecap:round; stroke-linejoin:round; stroke-width:4; stroke-opacity:1; fill:none" points="367.509,1881.88 367.509,1862.98 "></polyline>
<polyline clip-path="url(#clip690)" style="stroke:#000000; stroke-linecap:round; stroke-linejoin:round; stroke-width:4; stroke-opacity:1; fill:none" points="1246.5,1881.88 1246.5,1862.98 "></polyline>
<polyline clip-path="url(#clip690)" style="stroke:#000000; stroke-linecap:round; stroke-linejoin:round; stroke-width:4; stroke-opacity:1; fill:none" points="2125.5,1881.88 2125.5,1862.98 "></polyline>
<polyline clip-path="url(#clip690)" style="stroke:#000000; stroke-linecap:round; stroke-linejoin:round; stroke-width:4; stroke-opacity:1; fill:none" points="3004.5,1881.88 3004.5,1862.98 "></polyline>
<polyline clip-path="url(#clip690)" style="stroke:#000000; stroke-linecap:round; stroke-linejoin:round; stroke-width:4; stroke-opacity:1; fill:none" points="3883.49,1881.88 3883.49,1862.98 "></polyline>
<path clip-path="url(#clip690)" d="M367.509 1925.59 Q363.897 1925.59 362.069 1929.16 Q360.263 1932.7 360.263 1939.83 Q360.263 1946.94 362.069 1950.5 Q363.897 1954.04 367.509 1954.04 Q371.143 1954.04 372.948 1950.5 Q374.777 1946.94 374.777 1939.83 Q374.777 1932.7 372.948 1929.16 Q371.143 1925.59 367.509 1925.59 M367.509 1921.89 Q373.319 1921.89 376.374 1926.5 Q379.453 1931.08 379.453 1939.83 Q379.453 1948.56 376.374 1953.16 Q373.319 1957.75 367.509 1957.75 Q361.698 1957.75 358.62 1953.16 Q355.564 1948.56 355.564 1939.83 Q355.564 1931.08 358.62 1926.5 Q361.698 1921.89 367.509 1921.89 Z" fill="#000000" fill-rule="nonzero" fill-opacity="1"></path><path clip-path="url(#clip690)" d="M1142.41 1968.8 L1158.73 1968.8 L1158.73 1972.74 L1136.78 1972.74 L1136.78 1968.8 Q1139.44 1966.05 1144.03 1961.42 Q1148.63 1956.76 1149.81 1955.42 Q1152.06 1952.9 1152.94 1951.16 Q1153.84 1949.4 1153.84 1947.71 Q1153.84 1944.96 1151.9 1943.22 Q1149.98 1941.49 1146.88 1941.49 Q1144.68 1941.49 1142.22 1942.25 Q1139.79 1943.01 1137.01 1944.56 L1137.01 1939.84 Q1139.84 1938.71 1142.29 1938.13 Q1144.75 1937.55 1146.78 1937.55 Q1152.15 1937.55 1155.35 1940.24 Q1158.54 1942.92 1158.54 1947.41 Q1158.54 1949.54 1157.73 1951.46 Q1156.94 1953.36 1154.84 1955.95 Q1154.26 1956.62 1151.16 1959.84 Q1148.06 1963.04 1142.41 1968.8 Z" fill="#000000" fill-rule="nonzero" fill-opacity="1"></path><path clip-path="url(#clip690)" d="M1168.54 1966.86 L1173.43 1966.86 L1173.43 1972.74 L1168.54 1972.74 L1168.54 1966.86 Z" fill="#000000" fill-rule="nonzero" fill-opacity="1"></path><path clip-path="url(#clip690)" d="M1183.66 1938.18 L1202.01 1938.18 L1202.01 1942.11 L1187.94 1942.11 L1187.94 1950.58 Q1188.96 1950.24 1189.98 1950.07 Q1191 1949.89 1192.01 1949.89 Q1197.8 1949.89 1201.18 1953.06 Q1204.56 1956.23 1204.56 1961.65 Q1204.56 1967.23 1201.09 1970.33 Q1197.62 1973.41 1191.3 1973.41 Q1189.12 1973.41 1186.85 1973.04 Q1184.61 1972.67 1182.2 1971.93 L1182.2 1967.23 Q1184.28 1968.36 1186.5 1968.92 Q1188.73 1969.47 1191.2 1969.47 Q1195.21 1969.47 1197.55 1967.37 Q1199.88 1965.26 1199.88 1961.65 Q1199.88 1958.04 1197.55 1955.93 Q1195.21 1953.82 1191.2 1953.82 Q1189.33 1953.82 1187.45 1954.24 Q1185.6 1954.66 1183.66 1955.54 L1183.66 1938.18 Z" fill="#000000" fill-rule="nonzero" fill-opacity="1"></path><path clip-path="url(#clip690)" d="M1223.77 1941.25 Q1220.16 1941.25 1218.33 1944.82 Q1216.53 1948.36 1216.53 1955.49 Q1216.53 1962.6 1218.33 1966.16 Q1220.16 1969.7 1223.77 1969.7 Q1227.41 1969.7 1229.21 1966.16 Q1231.04 1962.6 1231.04 1955.49 Q1231.04 1948.36 1229.21 1944.82 Q1227.41 1941.25 1223.77 1941.25 M1223.77 1937.55 Q1229.58 1937.55 1232.64 1942.16 Q1235.72 1946.74 1235.72 1955.49 Q1235.72 1964.22 1232.64 1968.82 Q1229.58 1973.41 1223.77 1973.41 Q1217.96 1973.41 1214.88 1968.82 Q1211.83 1964.22 1211.83 1955.49 Q1211.83 1946.74 1214.88 1942.16 Q1217.96 1937.55 1223.77 1937.55 Z" fill="#000000" fill-rule="nonzero" fill-opacity="1"></path><path clip-path="url(#clip690)" d="M1272.11 1947.27 L1261.53 1957.9 L1272.11 1968.48 L1269.35 1971.28 L1258.73 1960.65 L1248.1 1971.28 L1245.37 1968.48 L1255.93 1957.9 L1245.37 1947.27 L1248.1 1944.47 L1258.73 1955.1 L1269.35 1944.47 L1272.11 1947.27 Z" fill="#000000" fill-rule="nonzero" fill-opacity="1"></path><path clip-path="url(#clip690)" d="M1284.47 1968.8 L1292.11 1968.8 L1292.11 1942.43 L1283.8 1944.1 L1283.8 1939.84 L1292.06 1938.18 L1296.74 1938.18 L1296.74 1968.8 L1304.37 1968.8 L1304.37 1972.74 L1284.47 1972.74 L1284.47 1968.8 Z" fill="#000000" fill-rule="nonzero" fill-opacity="1"></path><path clip-path="url(#clip690)" d="M1323.82 1941.25 Q1320.21 1941.25 1318.38 1944.82 Q1316.57 1948.36 1316.57 1955.49 Q1316.57 1962.6 1318.38 1966.16 Q1320.21 1969.7 1323.82 1969.7 Q1327.45 1969.7 1329.26 1966.16 Q1331.09 1962.6 1331.09 1955.49 Q1331.09 1948.36 1329.26 1944.82 Q1327.45 1941.25 1323.82 1941.25 M1323.82 1937.55 Q1329.63 1937.55 1332.68 1942.16 Q1335.76 1946.74 1335.76 1955.49 Q1335.76 1964.22 1332.68 1968.82 Q1329.63 1973.41 1323.82 1973.41 Q1318.01 1973.41 1314.93 1968.82 Q1311.87 1964.22 1311.87 1955.49 Q1311.87 1946.74 1314.93 1942.16 Q1318.01 1937.55 1323.82 1937.55 Z" fill="#000000" fill-rule="nonzero" fill-opacity="1"></path><path clip-path="url(#clip690)" d="M1348.44 1920.56 L1338.85 1935.55 L1348.44 1935.55 L1348.44 1920.56 M1347.44 1917.25 L1352.22 1917.25 L1352.22 1935.55 L1356.23 1935.55 L1356.23 1938.7 L1352.22 1938.7 L1352.22 1945.33 L1348.44 1945.33 L1348.44 1938.7 L1335.76 1938.7 L1335.76 1935.04 L1347.44 1917.25 Z" fill="#000000" fill-rule="nonzero" fill-opacity="1"></path><path clip-path="url(#clip690)" d="M2017.33 1938.18 L2035.69 1938.18 L2035.69 1942.11 L2021.61 1942.11 L2021.61 1950.58 Q2022.63 1950.24 2023.65 1950.07 Q2024.67 1949.89 2025.69 1949.89 Q2031.47 1949.89 2034.85 1953.06 Q2038.23 1956.23 2038.23 1961.65 Q2038.23 1967.23 2034.76 1970.33 Q2031.29 1973.41 2024.97 1973.41 Q2022.79 1973.41 2020.52 1973.04 Q2018.28 1972.67 2015.87 1971.93 L2015.87 1967.23 Q2017.95 1968.36 2020.18 1968.92 Q2022.4 1969.47 2024.88 1969.47 Q2028.88 1969.47 2031.22 1967.37 Q2033.56 1965.26 2033.56 1961.65 Q2033.56 1958.04 2031.22 1955.93 Q2028.88 1953.82 2024.88 1953.82 Q2023 1953.82 2021.13 1954.24 Q2019.27 1954.66 2017.33 1955.54 L2017.33 1938.18 Z" fill="#000000" fill-rule="nonzero" fill-opacity="1"></path><path clip-path="url(#clip690)" d="M2047.44 1966.86 L2052.33 1966.86 L2052.33 1972.74 L2047.44 1972.74 L2047.44 1966.86 Z" fill="#000000" fill-rule="nonzero" fill-opacity="1"></path><path clip-path="url(#clip690)" d="M2072.51 1941.25 Q2068.9 1941.25 2067.07 1944.82 Q2065.27 1948.36 2065.27 1955.49 Q2065.27 1962.6 2067.07 1966.16 Q2068.9 1969.7 2072.51 1969.7 Q2076.15 1969.7 2077.95 1966.16 Q2079.78 1962.6 2079.78 1955.49 Q2079.78 1948.36 2077.95 1944.82 Q2076.15 1941.25 2072.51 1941.25 M2072.51 1937.55 Q2078.32 1937.55 2081.38 1942.16 Q2084.46 1946.74 2084.46 1955.49 Q2084.46 1964.22 2081.38 1968.82 Q2078.32 1973.41 2072.51 1973.41 Q2066.7 1973.41 2063.63 1968.82 Q2060.57 1964.22 2060.57 1955.49 Q2060.57 1946.74 2063.63 1942.16 Q2066.7 1937.55 2072.51 1937.55 Z" fill="#000000" fill-rule="nonzero" fill-opacity="1"></path><path clip-path="url(#clip690)" d="M2102.68 1941.25 Q2099.06 1941.25 2097.24 1944.82 Q2095.43 1948.36 2095.43 1955.49 Q2095.43 1962.6 2097.24 1966.16 Q2099.06 1969.7 2102.68 1969.7 Q2106.31 1969.7 2108.12 1966.16 Q2109.94 1962.6 2109.94 1955.49 Q2109.94 1948.36 2108.12 1944.82 Q2106.31 1941.25 2102.68 1941.25 M2102.68 1937.55 Q2108.49 1937.55 2111.54 1942.16 Q2114.62 1946.74 2114.62 1955.49 Q2114.62 1964.22 2111.54 1968.82 Q2108.49 1973.41 2102.68 1973.41 Q2096.87 1973.41 2093.79 1968.82 Q2090.73 1964.22 2090.73 1955.49 Q2090.73 1946.74 2093.79 1942.16 Q2096.87 1937.55 2102.68 1937.55 Z" fill="#000000" fill-rule="nonzero" fill-opacity="1"></path><path clip-path="url(#clip690)" d="M2151.01 1947.27 L2140.43 1957.9 L2151.01 1968.48 L2148.25 1971.28 L2137.63 1960.65 L2127 1971.28 L2124.27 1968.48 L2134.83 1957.9 L2124.27 1947.27 L2127 1944.47 L2137.63 1955.1 L2148.25 1944.47 L2151.01 1947.27 Z" fill="#000000" fill-rule="nonzero" fill-opacity="1"></path><path clip-path="url(#clip690)" d="M2163.37 1968.8 L2171.01 1968.8 L2171.01 1942.43 L2162.7 1944.1 L2162.7 1939.84 L2170.96 1938.18 L2175.64 1938.18 L2175.64 1968.8 L2183.28 1968.8 L2183.28 1972.74 L2163.37 1972.74 L2163.37 1968.8 Z" fill="#000000" fill-rule="nonzero" fill-opacity="1"></path><path clip-path="url(#clip690)" d="M2202.72 1941.25 Q2199.11 1941.25 2197.28 1944.82 Q2195.48 1948.36 2195.48 1955.49 Q2195.48 1962.6 2197.28 1966.16 Q2199.11 1969.7 2202.72 1969.7 Q2206.36 1969.7 2208.16 1966.16 Q2209.99 1962.6 2209.99 1955.49 Q2209.99 1948.36 2208.16 1944.82 Q2206.36 1941.25 2202.72 1941.25 M2202.72 1937.55 Q2208.53 1937.55 2211.59 1942.16 Q2214.67 1946.74 2214.67 1955.49 Q2214.67 1964.22 2211.59 1968.82 Q2208.53 1973.41 2202.72 1973.41 Q2196.91 1973.41 2193.83 1968.82 Q2190.78 1964.22 2190.78 1955.49 Q2190.78 1946.74 2193.83 1942.16 Q2196.91 1937.55 2202.72 1937.55 Z" fill="#000000" fill-rule="nonzero" fill-opacity="1"></path><path clip-path="url(#clip690)" d="M2227.34 1920.56 L2217.75 1935.55 L2227.34 1935.55 L2227.34 1920.56 M2226.35 1917.25 L2231.12 1917.25 L2231.12 1935.55 L2235.13 1935.55 L2235.13 1938.7 L2231.12 1938.7 L2231.12 1945.33 L2227.34 1945.33 L2227.34 1938.7 L2214.67 1938.7 L2214.67 1935.04 L2226.35 1917.25 Z" fill="#000000" fill-rule="nonzero" fill-opacity="1"></path><path clip-path="url(#clip690)" d="M2894.98 1938.18 L2917.2 1938.18 L2917.2 1940.17 L2904.66 1972.74 L2899.77 1972.74 L2911.58 1942.11 L2894.98 1942.11 L2894.98 1938.18 Z" fill="#000000" fill-rule="nonzero" fill-opacity="1"></path><path clip-path="url(#clip690)" d="M2926.32 1966.86 L2931.21 1966.86 L2931.21 1972.74 L2926.32 1972.74 L2926.32 1966.86 Z" fill="#000000" fill-rule="nonzero" fill-opacity="1"></path><path clip-path="url(#clip690)" d="M2941.44 1938.18 L2959.8 1938.18 L2959.8 1942.11 L2945.72 1942.11 L2945.72 1950.58 Q2946.74 1950.24 2947.76 1950.07 Q2948.78 1949.89 2949.8 1949.89 Q2955.58 1949.89 2958.96 1953.06 Q2962.34 1956.23 2962.34 1961.65 Q2962.34 1967.23 2958.87 1970.33 Q2955.4 1973.41 2949.08 1973.41 Q2946.9 1973.41 2944.63 1973.04 Q2942.39 1972.67 2939.98 1971.93 L2939.98 1967.23 Q2942.07 1968.36 2944.29 1968.92 Q2946.51 1969.47 2948.99 1969.47 Q2952.99 1969.47 2955.33 1967.37 Q2957.67 1965.26 2957.67 1961.65 Q2957.67 1958.04 2955.33 1955.93 Q2952.99 1953.82 2948.99 1953.82 Q2947.11 1953.82 2945.24 1954.24 Q2943.38 1954.66 2941.44 1955.54 L2941.44 1938.18 Z" fill="#000000" fill-rule="nonzero" fill-opacity="1"></path><path clip-path="url(#clip690)" d="M2981.56 1941.25 Q2977.94 1941.25 2976.12 1944.82 Q2974.31 1948.36 2974.31 1955.49 Q2974.31 1962.6 2976.12 1966.16 Q2977.94 1969.7 2981.56 1969.7 Q2985.19 1969.7 2987 1966.16 Q2988.82 1962.6 2988.82 1955.49 Q2988.82 1948.36 2987 1944.82 Q2985.19 1941.25 2981.56 1941.25 M2981.56 1937.55 Q2987.37 1937.55 2990.42 1942.16 Q2993.5 1946.74 2993.5 1955.49 Q2993.5 1964.22 2990.42 1968.82 Q2987.37 1973.41 2981.56 1973.41 Q2975.75 1973.41 2972.67 1968.82 Q2969.61 1964.22 2969.61 1955.49 Q2969.61 1946.74 2972.67 1942.16 Q2975.75 1937.55 2981.56 1937.55 Z" fill="#000000" fill-rule="nonzero" fill-opacity="1"></path><path clip-path="url(#clip690)" d="M3029.89 1947.27 L3019.31 1957.9 L3029.89 1968.48 L3027.13 1971.28 L3016.51 1960.65 L3005.88 1971.28 L3003.15 1968.48 L3013.71 1957.9 L3003.15 1947.27 L3005.88 1944.47 L3016.51 1955.1 L3027.13 1944.47 L3029.89 1947.27 Z" fill="#000000" fill-rule="nonzero" fill-opacity="1"></path><path clip-path="url(#clip690)" d="M3042.25 1968.8 L3049.89 1968.8 L3049.89 1942.43 L3041.58 1944.1 L3041.58 1939.84 L3049.84 1938.18 L3054.52 1938.18 L3054.52 1968.8 L3062.16 1968.8 L3062.16 1972.74 L3042.25 1972.74 L3042.25 1968.8 Z" fill="#000000" fill-rule="nonzero" fill-opacity="1"></path><path clip-path="url(#clip690)" d="M3081.6 1941.25 Q3077.99 1941.25 3076.16 1944.82 Q3074.36 1948.36 3074.36 1955.49 Q3074.36 1962.6 3076.16 1966.16 Q3077.99 1969.7 3081.6 1969.7 Q3085.24 1969.7 3087.04 1966.16 Q3088.87 1962.6 3088.87 1955.49 Q3088.87 1948.36 3087.04 1944.82 Q3085.24 1941.25 3081.6 1941.25 M3081.6 1937.55 Q3087.41 1937.55 3090.47 1942.16 Q3093.55 1946.74 3093.55 1955.49 Q3093.55 1964.22 3090.47 1968.82 Q3087.41 1973.41 3081.6 1973.41 Q3075.79 1973.41 3072.71 1968.82 Q3069.66 1964.22 3069.66 1955.49 Q3069.66 1946.74 3072.71 1942.16 Q3075.79 1937.55 3081.6 1937.55 Z" fill="#000000" fill-rule="nonzero" fill-opacity="1"></path><path clip-path="url(#clip690)" d="M3106.22 1920.56 L3096.63 1935.55 L3106.22 1935.55 L3106.22 1920.56 M3105.23 1917.25 L3110 1917.25 L3110 1935.55 L3114.01 1935.55 L3114.01 1938.7 L3110 1938.7 L3110 1945.33 L3106.22 1945.33 L3106.22 1938.7 L3093.55 1938.7 L3093.55 1935.04 L3105.23 1917.25 Z" fill="#000000" fill-rule="nonzero" fill-opacity="1"></path><path clip-path="url(#clip690)" d="M3776.46 1968.8 L3784.09 1968.8 L3784.09 1942.43 L3775.78 1944.1 L3775.78 1939.84 L3784.05 1938.18 L3788.72 1938.18 L3788.72 1968.8 L3796.36 1968.8 L3796.36 1972.74 L3776.46 1972.74 L3776.46 1968.8 Z" fill="#000000" fill-rule="nonzero" fill-opacity="1"></path><path clip-path="url(#clip690)" d="M3805.81 1966.86 L3810.69 1966.86 L3810.69 1972.74 L3805.81 1972.74 L3805.81 1966.86 Z" fill="#000000" fill-rule="nonzero" fill-opacity="1"></path><path clip-path="url(#clip690)" d="M3830.88 1941.25 Q3827.27 1941.25 3825.44 1944.82 Q3823.63 1948.36 3823.63 1955.49 Q3823.63 1962.6 3825.44 1966.16 Q3827.27 1969.7 3830.88 1969.7 Q3834.51 1969.7 3836.32 1966.16 Q3838.15 1962.6 3838.15 1955.49 Q3838.15 1948.36 3836.32 1944.82 Q3834.51 1941.25 3830.88 1941.25 M3830.88 1937.55 Q3836.69 1937.55 3839.74 1942.16 Q3842.82 1946.74 3842.82 1955.49 Q3842.82 1964.22 3839.74 1968.82 Q3836.69 1973.41 3830.88 1973.41 Q3825.07 1973.41 3821.99 1968.82 Q3818.93 1964.22 3818.93 1955.49 Q3818.93 1946.74 3821.99 1942.16 Q3825.07 1937.55 3830.88 1937.55 Z" fill="#000000" fill-rule="nonzero" fill-opacity="1"></path><path clip-path="url(#clip690)" d="M3861.04 1941.25 Q3857.43 1941.25 3855.6 1944.82 Q3853.79 1948.36 3853.79 1955.49 Q3853.79 1962.6 3855.6 1966.16 Q3857.43 1969.7 3861.04 1969.7 Q3864.67 1969.7 3866.48 1966.16 Q3868.31 1962.6 3868.31 1955.49 Q3868.31 1948.36 3866.48 1944.82 Q3864.67 1941.25 3861.04 1941.25 M3861.04 1937.55 Q3866.85 1937.55 3869.9 1942.16 Q3872.98 1946.74 3872.98 1955.49 Q3872.98 1964.22 3869.9 1968.82 Q3866.85 1973.41 3861.04 1973.41 Q3855.23 1973.41 3852.15 1968.82 Q3849.09 1964.22 3849.09 1955.49 Q3849.09 1946.74 3852.15 1942.16 Q3855.23 1937.55 3861.04 1937.55 Z" fill="#000000" fill-rule="nonzero" fill-opacity="1"></path><path clip-path="url(#clip690)" d="M3909.37 1947.27 L3898.79 1957.9 L3909.37 1968.48 L3906.62 1971.28 L3895.99 1960.65 L3885.37 1971.28 L3882.64 1968.48 L3893.19 1957.9 L3882.64 1947.27 L3885.37 1944.47 L3895.99 1955.1 L3906.62 1944.47 L3909.37 1947.27 Z" fill="#000000" fill-rule="nonzero" fill-opacity="1"></path><path clip-path="url(#clip690)" d="M3921.73 1968.8 L3929.37 1968.8 L3929.37 1942.43 L3921.06 1944.1 L3921.06 1939.84 L3929.33 1938.18 L3934 1938.18 L3934 1968.8 L3941.64 1968.8 L3941.64 1972.74 L3921.73 1972.74 L3921.73 1968.8 Z" fill="#000000" fill-rule="nonzero" fill-opacity="1"></path><path clip-path="url(#clip690)" d="M3961.08 1941.25 Q3957.47 1941.25 3955.64 1944.82 Q3953.84 1948.36 3953.84 1955.49 Q3953.84 1962.6 3955.64 1966.16 Q3957.47 1969.7 3961.08 1969.7 Q3964.72 1969.7 3966.52 1966.16 Q3968.35 1962.6 3968.35 1955.49 Q3968.35 1948.36 3966.52 1944.82 Q3964.72 1941.25 3961.08 1941.25 M3961.08 1937.55 Q3966.89 1937.55 3969.95 1942.16 Q3973.03 1946.74 3973.03 1955.49 Q3973.03 1964.22 3969.95 1968.82 Q3966.89 1973.41 3961.08 1973.41 Q3955.27 1973.41 3952.2 1968.82 Q3949.14 1964.22 3949.14 1955.49 Q3949.14 1946.74 3952.2 1942.16 Q3955.27 1937.55 3961.08 1937.55 Z" fill="#000000" fill-rule="nonzero" fill-opacity="1"></path><path clip-path="url(#clip690)" d="M3974.21 1917.25 L3989.13 1917.25 L3989.13 1920.44 L3977.69 1920.44 L3977.69 1927.33 Q3978.52 1927.04 3979.35 1926.91 Q3980.18 1926.76 3981 1926.76 Q3985.71 1926.76 3988.45 1929.34 Q3991.2 1931.92 3991.2 1936.32 Q3991.2 1940.85 3988.38 1943.37 Q3985.56 1945.87 3980.42 1945.87 Q3978.65 1945.87 3976.81 1945.57 Q3974.99 1945.27 3973.03 1944.67 L3973.03 1940.85 Q3974.72 1941.77 3976.53 1942.22 Q3978.33 1942.67 3980.35 1942.67 Q3983.6 1942.67 3985.5 1940.96 Q3987.4 1939.25 3987.4 1936.32 Q3987.4 1933.38 3985.5 1931.67 Q3983.6 1929.96 3980.35 1929.96 Q3978.82 1929.96 3977.3 1930.3 Q3975.79 1930.64 3974.21 1931.35 L3974.21 1917.25 Z" fill="#000000" fill-rule="nonzero" fill-opacity="1"></path><polyline clip-path="url(#clip692)" style="stroke:#000000; stroke-linecap:round; stroke-linejoin:round; stroke-width:2; stroke-opacity:0.1; fill:none" points="263.084,1881.88 3952.76,1881.88 "></polyline>
<polyline clip-path="url(#clip692)" style="stroke:#000000; stroke-linecap:round; stroke-linejoin:round; stroke-width:2; stroke-opacity:0.1; fill:none" points="263.084,1605.79 3952.76,1605.79 "></polyline>
<polyline clip-path="url(#clip692)" style="stroke:#000000; stroke-linecap:round; stroke-linejoin:round; stroke-width:2; stroke-opacity:0.1; fill:none" points="263.084,1329.7 3952.76,1329.7 "></polyline>
<polyline clip-path="url(#clip692)" style="stroke:#000000; stroke-linecap:round; stroke-linejoin:round; stroke-width:2; stroke-opacity:0.1; fill:none" points="263.084,1053.61 3952.76,1053.61 "></polyline>
<polyline clip-path="url(#clip692)" style="stroke:#000000; stroke-linecap:round; stroke-linejoin:round; stroke-width:2; stroke-opacity:0.1; fill:none" points="263.084,777.519 3952.76,777.519 "></polyline>
<polyline clip-path="url(#clip692)" style="stroke:#000000; stroke-linecap:round; stroke-linejoin:round; stroke-width:2; stroke-opacity:0.1; fill:none" points="263.084,501.43 3952.76,501.43 "></polyline>
<polyline clip-path="url(#clip692)" style="stroke:#000000; stroke-linecap:round; stroke-linejoin:round; stroke-width:2; stroke-opacity:0.1; fill:none" points="263.084,225.34 3952.76,225.34 "></polyline>
<polyline clip-path="url(#clip690)" style="stroke:#000000; stroke-linecap:round; stroke-linejoin:round; stroke-width:4; stroke-opacity:1; fill:none" points="263.084,1881.88 263.084,47.2441 "></polyline>
<polyline clip-path="url(#clip690)" style="stroke:#000000; stroke-linecap:round; stroke-linejoin:round; stroke-width:4; stroke-opacity:1; fill:none" points="263.084,1881.88 281.981,1881.88 "></polyline>
<polyline clip-path="url(#clip690)" style="stroke:#000000; stroke-linecap:round; stroke-linejoin:round; stroke-width:4; stroke-opacity:1; fill:none" points="263.084,1605.79 281.981,1605.79 "></polyline>
<polyline clip-path="url(#clip690)" style="stroke:#000000; stroke-linecap:round; stroke-linejoin:round; stroke-width:4; stroke-opacity:1; fill:none" points="263.084,1329.7 281.981,1329.7 "></polyline>
<polyline clip-path="url(#clip690)" style="stroke:#000000; stroke-linecap:round; stroke-linejoin:round; stroke-width:4; stroke-opacity:1; fill:none" points="263.084,1053.61 281.981,1053.61 "></polyline>
<polyline clip-path="url(#clip690)" style="stroke:#000000; stroke-linecap:round; stroke-linejoin:round; stroke-width:4; stroke-opacity:1; fill:none" points="263.084,777.519 281.981,777.519 "></polyline>
<polyline clip-path="url(#clip690)" style="stroke:#000000; stroke-linecap:round; stroke-linejoin:round; stroke-width:4; stroke-opacity:1; fill:none" points="263.084,501.43 281.981,501.43 "></polyline>
<polyline clip-path="url(#clip690)" style="stroke:#000000; stroke-linecap:round; stroke-linejoin:round; stroke-width:4; stroke-opacity:1; fill:none" points="263.084,225.34 281.981,225.34 "></polyline>
<path clip-path="url(#clip690)" d="M55.4226 1867.67 Q51.8115 1867.67 49.9828 1871.24 Q48.1773 1874.78 48.1773 1881.91 Q48.1773 1889.02 49.9828 1892.58 Q51.8115 1896.12 55.4226 1896.12 Q59.0569 1896.12 60.8624 1892.58 Q62.6911 1889.02 62.6911 1881.91 Q62.6911 1874.78 60.8624 1871.24 Q59.0569 1867.67 55.4226 1867.67 M55.4226 1863.97 Q61.2328 1863.97 64.2883 1868.58 Q67.367 1873.16 67.367 1881.91 Q67.367 1890.64 64.2883 1895.24 Q61.2328 1899.83 55.4226 1899.83 Q49.6125 1899.83 46.5338 1895.24 Q43.4782 1890.64 43.4782 1881.91 Q43.4782 1873.16 46.5338 1868.58 Q49.6125 1863.97 55.4226 1863.97 Z" fill="#000000" fill-rule="nonzero" fill-opacity="1"></path><path clip-path="url(#clip690)" d="M75.5845 1893.28 L80.4688 1893.28 L80.4688 1899.16 L75.5845 1899.16 L75.5845 1893.28 Z" fill="#000000" fill-rule="nonzero" fill-opacity="1"></path><path clip-path="url(#clip690)" d="M100.654 1867.67 Q97.0428 1867.67 95.2141 1871.24 Q93.4085 1874.78 93.4085 1881.91 Q93.4085 1889.02 95.2141 1892.58 Q97.0428 1896.12 100.654 1896.12 Q104.288 1896.12 106.094 1892.58 Q107.922 1889.02 107.922 1881.91 Q107.922 1874.78 106.094 1871.24 Q104.288 1867.67 100.654 1867.67 M100.654 1863.97 Q106.464 1863.97 109.52 1868.58 Q112.598 1873.16 112.598 1881.91 Q112.598 1890.64 109.52 1895.24 Q106.464 1899.83 100.654 1899.83 Q94.8437 1899.83 91.765 1895.24 Q88.7095 1890.64 88.7095 1881.91 Q88.7095 1873.16 91.765 1868.58 Q94.8437 1863.97 100.654 1863.97 Z" fill="#000000" fill-rule="nonzero" fill-opacity="1"></path><path clip-path="url(#clip690)" d="M130.816 1867.67 Q127.205 1867.67 125.376 1871.24 Q123.57 1874.78 123.57 1881.91 Q123.57 1889.02 125.376 1892.58 Q127.205 1896.12 130.816 1896.12 Q134.45 1896.12 136.256 1892.58 Q138.084 1889.02 138.084 1881.91 Q138.084 1874.78 136.256 1871.24 Q134.45 1867.67 130.816 1867.67 M130.816 1863.97 Q136.626 1863.97 139.681 1868.58 Q142.76 1873.16 142.76 1881.91 Q142.76 1890.64 139.681 1895.24 Q136.626 1899.83 130.816 1899.83 Q125.006 1899.83 121.927 1895.24 Q118.871 1890.64 118.871 1881.91 Q118.871 1873.16 121.927 1868.58 Q125.006 1863.97 130.816 1863.97 Z" fill="#000000" fill-rule="nonzero" fill-opacity="1"></path><path clip-path="url(#clip690)" d="M160.978 1867.67 Q157.367 1867.67 155.538 1871.24 Q153.732 1874.78 153.732 1881.91 Q153.732 1889.02 155.538 1892.58 Q157.367 1896.12 160.978 1896.12 Q164.612 1896.12 166.417 1892.58 Q168.246 1889.02 168.246 1881.91 Q168.246 1874.78 166.417 1871.24 Q164.612 1867.67 160.978 1867.67 M160.978 1863.97 Q166.788 1863.97 169.843 1868.58 Q172.922 1873.16 172.922 1881.91 Q172.922 1890.64 169.843 1895.24 Q166.788 1899.83 160.978 1899.83 Q155.167 1899.83 152.089 1895.24 Q149.033 1890.64 149.033 1881.91 Q149.033 1873.16 152.089 1868.58 Q155.167 1863.97 160.978 1863.97 Z" fill="#000000" fill-rule="nonzero" fill-opacity="1"></path><path clip-path="url(#clip690)" d="M191.139 1867.67 Q187.528 1867.67 185.7 1871.24 Q183.894 1874.78 183.894 1881.91 Q183.894 1889.02 185.7 1892.58 Q187.528 1896.12 191.139 1896.12 Q194.774 1896.12 196.579 1892.58 Q198.408 1889.02 198.408 1881.91 Q198.408 1874.78 196.579 1871.24 Q194.774 1867.67 191.139 1867.67 M191.139 1863.97 Q196.95 1863.97 200.005 1868.58 Q203.084 1873.16 203.084 1881.91 Q203.084 1890.64 200.005 1895.24 Q196.95 1899.83 191.139 1899.83 Q185.329 1899.83 182.251 1895.24 Q179.195 1890.64 179.195 1881.91 Q179.195 1873.16 182.251 1868.58 Q185.329 1863.97 191.139 1863.97 Z" fill="#000000" fill-rule="nonzero" fill-opacity="1"></path><path clip-path="url(#clip690)" d="M56.6495 1591.58 Q53.0384 1591.58 51.2097 1595.15 Q49.4041 1598.69 49.4041 1605.82 Q49.4041 1612.93 51.2097 1616.49 Q53.0384 1620.03 56.6495 1620.03 Q60.2837 1620.03 62.0892 1616.49 Q63.9179 1612.93 63.9179 1605.82 Q63.9179 1598.69 62.0892 1595.15 Q60.2837 1591.58 56.6495 1591.58 M56.6495 1587.88 Q62.4596 1587.88 65.5152 1592.49 Q68.5938 1597.07 68.5938 1605.82 Q68.5938 1614.55 65.5152 1619.15 Q62.4596 1623.74 56.6495 1623.74 Q50.8393 1623.74 47.7606 1619.15 Q44.7051 1614.55 44.7051 1605.82 Q44.7051 1597.07 47.7606 1592.49 Q50.8393 1587.88 56.6495 1587.88 Z" fill="#000000" fill-rule="nonzero" fill-opacity="1"></path><path clip-path="url(#clip690)" d="M76.8114 1617.19 L81.6956 1617.19 L81.6956 1623.07 L76.8114 1623.07 L76.8114 1617.19 Z" fill="#000000" fill-rule="nonzero" fill-opacity="1"></path><path clip-path="url(#clip690)" d="M101.881 1591.58 Q98.2696 1591.58 96.4409 1595.15 Q94.6354 1598.69 94.6354 1605.82 Q94.6354 1612.93 96.4409 1616.49 Q98.2696 1620.03 101.881 1620.03 Q105.515 1620.03 107.32 1616.49 Q109.149 1612.93 109.149 1605.82 Q109.149 1598.69 107.32 1595.15 Q105.515 1591.58 101.881 1591.58 M101.881 1587.88 Q107.691 1587.88 110.746 1592.49 Q113.825 1597.07 113.825 1605.82 Q113.825 1614.55 110.746 1619.15 Q107.691 1623.74 101.881 1623.74 Q96.0705 1623.74 92.9919 1619.15 Q89.9363 1614.55 89.9363 1605.82 Q89.9363 1597.07 92.9919 1592.49 Q96.0705 1587.88 101.881 1587.88 Z" fill="#000000" fill-rule="nonzero" fill-opacity="1"></path><path clip-path="url(#clip690)" d="M132.043 1591.58 Q128.431 1591.58 126.603 1595.15 Q124.797 1598.69 124.797 1605.82 Q124.797 1612.93 126.603 1616.49 Q128.431 1620.03 132.043 1620.03 Q135.677 1620.03 137.482 1616.49 Q139.311 1612.93 139.311 1605.82 Q139.311 1598.69 137.482 1595.15 Q135.677 1591.58 132.043 1591.58 M132.043 1587.88 Q137.853 1587.88 140.908 1592.49 Q143.987 1597.07 143.987 1605.82 Q143.987 1614.55 140.908 1619.15 Q137.853 1623.74 132.043 1623.74 Q126.232 1623.74 123.154 1619.15 Q120.098 1614.55 120.098 1605.82 Q120.098 1597.07 123.154 1592.49 Q126.232 1587.88 132.043 1587.88 Z" fill="#000000" fill-rule="nonzero" fill-opacity="1"></path><path clip-path="url(#clip690)" d="M162.204 1591.58 Q158.593 1591.58 156.765 1595.15 Q154.959 1598.69 154.959 1605.82 Q154.959 1612.93 156.765 1616.49 Q158.593 1620.03 162.204 1620.03 Q165.839 1620.03 167.644 1616.49 Q169.473 1612.93 169.473 1605.82 Q169.473 1598.69 167.644 1595.15 Q165.839 1591.58 162.204 1591.58 M162.204 1587.88 Q168.015 1587.88 171.07 1592.49 Q174.149 1597.07 174.149 1605.82 Q174.149 1614.55 171.07 1619.15 Q168.015 1623.74 162.204 1623.74 Q156.394 1623.74 153.316 1619.15 Q150.26 1614.55 150.26 1605.82 Q150.26 1597.07 153.316 1592.49 Q156.394 1587.88 162.204 1587.88 Z" fill="#000000" fill-rule="nonzero" fill-opacity="1"></path><path clip-path="url(#clip690)" d="M183.177 1619.13 L190.815 1619.13 L190.815 1592.77 L182.505 1594.43 L182.505 1590.17 L190.769 1588.51 L195.445 1588.51 L195.445 1619.13 L203.084 1619.13 L203.084 1623.07 L183.177 1623.07 L183.177 1619.13 Z" fill="#000000" fill-rule="nonzero" fill-opacity="1"></path><path clip-path="url(#clip690)" d="M57.0198 1315.5 Q53.4087 1315.5 51.58 1319.06 Q49.7745 1322.6 49.7745 1329.73 Q49.7745 1336.84 51.58 1340.4 Q53.4087 1343.94 57.0198 1343.94 Q60.6541 1343.94 62.4596 1340.4 Q64.2883 1336.84 64.2883 1329.73 Q64.2883 1322.6 62.4596 1319.06 Q60.6541 1315.5 57.0198 1315.5 M57.0198 1311.79 Q62.83 1311.79 65.8855 1316.4 Q68.9642 1320.98 68.9642 1329.73 Q68.9642 1338.46 65.8855 1343.07 Q62.83 1347.65 57.0198 1347.65 Q51.2097 1347.65 48.131 1343.07 Q45.0754 1338.46 45.0754 1329.73 Q45.0754 1320.98 48.131 1316.4 Q51.2097 1311.79 57.0198 1311.79 Z" fill="#000000" fill-rule="nonzero" fill-opacity="1"></path><path clip-path="url(#clip690)" d="M77.1818 1341.1 L82.066 1341.1 L82.066 1346.98 L77.1818 1346.98 L77.1818 1341.1 Z" fill="#000000" fill-rule="nonzero" fill-opacity="1"></path><path clip-path="url(#clip690)" d="M102.251 1315.5 Q98.64 1315.5 96.8113 1319.06 Q95.0057 1322.6 95.0057 1329.73 Q95.0057 1336.84 96.8113 1340.4 Q98.64 1343.94 102.251 1343.94 Q105.885 1343.94 107.691 1340.4 Q109.52 1336.84 109.52 1329.73 Q109.52 1322.6 107.691 1319.06 Q105.885 1315.5 102.251 1315.5 M102.251 1311.79 Q108.061 1311.79 111.117 1316.4 Q114.195 1320.98 114.195 1329.73 Q114.195 1338.46 111.117 1343.07 Q108.061 1347.65 102.251 1347.65 Q96.4409 1347.65 93.3622 1343.07 Q90.3067 1338.46 90.3067 1329.73 Q90.3067 1320.98 93.3622 1316.4 Q96.4409 1311.79 102.251 1311.79 Z" fill="#000000" fill-rule="nonzero" fill-opacity="1"></path><path clip-path="url(#clip690)" d="M132.413 1315.5 Q128.802 1315.5 126.973 1319.06 Q125.168 1322.6 125.168 1329.73 Q125.168 1336.84 126.973 1340.4 Q128.802 1343.94 132.413 1343.94 Q136.047 1343.94 137.853 1340.4 Q139.681 1336.84 139.681 1329.73 Q139.681 1322.6 137.853 1319.06 Q136.047 1315.5 132.413 1315.5 M132.413 1311.79 Q138.223 1311.79 141.279 1316.4 Q144.357 1320.98 144.357 1329.73 Q144.357 1338.46 141.279 1343.07 Q138.223 1347.65 132.413 1347.65 Q126.603 1347.65 123.524 1343.07 Q120.469 1338.46 120.469 1329.73 Q120.469 1320.98 123.524 1316.4 Q126.603 1311.79 132.413 1311.79 Z" fill="#000000" fill-rule="nonzero" fill-opacity="1"></path><path clip-path="url(#clip690)" d="M162.575 1315.5 Q158.964 1315.5 157.135 1319.06 Q155.329 1322.6 155.329 1329.73 Q155.329 1336.84 157.135 1340.4 Q158.964 1343.94 162.575 1343.94 Q166.209 1343.94 168.015 1340.4 Q169.843 1336.84 169.843 1329.73 Q169.843 1322.6 168.015 1319.06 Q166.209 1315.5 162.575 1315.5 M162.575 1311.79 Q168.385 1311.79 171.441 1316.4 Q174.519 1320.98 174.519 1329.73 Q174.519 1338.46 171.441 1343.07 Q168.385 1347.65 162.575 1347.65 Q156.765 1347.65 153.686 1343.07 Q150.63 1338.46 150.63 1329.73 Q150.63 1320.98 153.686 1316.4 Q156.765 1311.79 162.575 1311.79 Z" fill="#000000" fill-rule="nonzero" fill-opacity="1"></path><path clip-path="url(#clip690)" d="M186.765 1343.04 L203.084 1343.04 L203.084 1346.98 L181.14 1346.98 L181.14 1343.04 Q183.802 1340.29 188.385 1335.66 Q192.991 1331 194.172 1329.66 Q196.417 1327.14 197.297 1325.4 Q198.2 1323.64 198.2 1321.95 Q198.2 1319.2 196.255 1317.46 Q194.334 1315.73 191.232 1315.73 Q189.033 1315.73 186.579 1316.49 Q184.149 1317.26 181.371 1318.81 L181.371 1314.08 Q184.195 1312.95 186.649 1312.37 Q189.102 1311.79 191.139 1311.79 Q196.51 1311.79 199.704 1314.48 Q202.899 1317.16 202.899 1321.65 Q202.899 1323.78 202.088 1325.7 Q201.301 1327.6 199.195 1330.19 Q198.616 1330.87 195.514 1334.08 Q192.413 1337.28 186.765 1343.04 Z" fill="#000000" fill-rule="nonzero" fill-opacity="1"></path><path clip-path="url(#clip690)" d="M56.0708 1039.41 Q52.4597 1039.41 50.631 1042.97 Q48.8254 1046.51 48.8254 1053.64 Q48.8254 1060.75 50.631 1064.31 Q52.4597 1067.86 56.0708 1067.86 Q59.705 1067.86 61.5105 1064.31 Q63.3392 1060.75 63.3392 1053.64 Q63.3392 1046.51 61.5105 1042.97 Q59.705 1039.41 56.0708 1039.41 M56.0708 1035.7 Q61.8809 1035.7 64.9365 1040.31 Q68.0151 1044.89 68.0151 1053.64 Q68.0151 1062.37 64.9365 1066.98 Q61.8809 1071.56 56.0708 1071.56 Q50.2606 1071.56 47.1819 1066.98 Q44.1264 1062.37 44.1264 1053.64 Q44.1264 1044.89 47.1819 1040.31 Q50.2606 1035.7 56.0708 1035.7 Z" fill="#000000" fill-rule="nonzero" fill-opacity="1"></path><path clip-path="url(#clip690)" d="M76.2327 1065.01 L81.1169 1065.01 L81.1169 1070.89 L76.2327 1070.89 L76.2327 1065.01 Z" fill="#000000" fill-rule="nonzero" fill-opacity="1"></path><path clip-path="url(#clip690)" d="M101.302 1039.41 Q97.6909 1039.41 95.8622 1042.97 Q94.0567 1046.51 94.0567 1053.64 Q94.0567 1060.75 95.8622 1064.31 Q97.6909 1067.86 101.302 1067.86 Q104.936 1067.86 106.742 1064.31 Q108.57 1060.75 108.57 1053.64 Q108.57 1046.51 106.742 1042.97 Q104.936 1039.41 101.302 1039.41 M101.302 1035.7 Q107.112 1035.7 110.168 1040.31 Q113.246 1044.89 113.246 1053.64 Q113.246 1062.37 110.168 1066.98 Q107.112 1071.56 101.302 1071.56 Q95.4918 1071.56 92.4132 1066.98 Q89.3576 1062.37 89.3576 1053.64 Q89.3576 1044.89 92.4132 1040.31 Q95.4918 1035.7 101.302 1035.7 Z" fill="#000000" fill-rule="nonzero" fill-opacity="1"></path><path clip-path="url(#clip690)" d="M131.464 1039.41 Q127.853 1039.41 126.024 1042.97 Q124.219 1046.51 124.219 1053.64 Q124.219 1060.75 126.024 1064.31 Q127.853 1067.86 131.464 1067.86 Q135.098 1067.86 136.904 1064.31 Q138.732 1060.75 138.732 1053.64 Q138.732 1046.51 136.904 1042.97 Q135.098 1039.41 131.464 1039.41 M131.464 1035.7 Q137.274 1035.7 140.33 1040.31 Q143.408 1044.89 143.408 1053.64 Q143.408 1062.37 140.33 1066.98 Q137.274 1071.56 131.464 1071.56 Q125.654 1071.56 122.575 1066.98 Q119.519 1062.37 119.519 1053.64 Q119.519 1044.89 122.575 1040.31 Q125.654 1035.7 131.464 1035.7 Z" fill="#000000" fill-rule="nonzero" fill-opacity="1"></path><path clip-path="url(#clip690)" d="M161.626 1039.41 Q158.015 1039.41 156.186 1042.97 Q154.38 1046.51 154.38 1053.64 Q154.38 1060.75 156.186 1064.31 Q158.015 1067.86 161.626 1067.86 Q165.26 1067.86 167.066 1064.31 Q168.894 1060.75 168.894 1053.64 Q168.894 1046.51 167.066 1042.97 Q165.26 1039.41 161.626 1039.41 M161.626 1035.7 Q167.436 1035.7 170.491 1040.31 Q173.57 1044.89 173.57 1053.64 Q173.57 1062.37 170.491 1066.98 Q167.436 1071.56 161.626 1071.56 Q155.816 1071.56 152.737 1066.98 Q149.681 1062.37 149.681 1053.64 Q149.681 1044.89 152.737 1040.31 Q155.816 1035.7 161.626 1035.7 Z" fill="#000000" fill-rule="nonzero" fill-opacity="1"></path><path clip-path="url(#clip690)" d="M195.954 1052.25 Q199.311 1052.97 201.186 1055.24 Q203.084 1057.51 203.084 1060.84 Q203.084 1065.96 199.565 1068.76 Q196.047 1071.56 189.565 1071.56 Q187.39 1071.56 185.075 1071.12 Q182.783 1070.7 180.329 1069.85 L180.329 1065.33 Q182.274 1066.47 184.589 1067.05 Q186.903 1067.62 189.427 1067.62 Q193.825 1067.62 196.116 1065.89 Q198.431 1064.15 198.431 1060.84 Q198.431 1057.79 196.278 1056.07 Q194.149 1054.34 190.329 1054.34 L186.302 1054.34 L186.302 1050.49 L190.514 1050.49 Q193.964 1050.49 195.792 1049.13 Q197.621 1047.74 197.621 1045.15 Q197.621 1042.49 195.723 1041.07 Q193.848 1039.64 190.329 1039.64 Q188.408 1039.64 186.209 1040.05 Q184.01 1040.47 181.371 1041.35 L181.371 1037.18 Q184.033 1036.44 186.348 1036.07 Q188.686 1035.7 190.746 1035.7 Q196.07 1035.7 199.172 1038.13 Q202.274 1040.54 202.274 1044.66 Q202.274 1047.53 200.63 1049.52 Q198.987 1051.49 195.954 1052.25 Z" fill="#000000" fill-rule="nonzero" fill-opacity="1"></path><path clip-path="url(#clip690)" d="M54.9365 763.317 Q51.3254 763.317 49.4967 766.882 Q47.6912 770.424 47.6912 777.553 Q47.6912 784.66 49.4967 788.225 Q51.3254 791.766 54.9365 791.766 Q58.5707 791.766 60.3763 788.225 Q62.205 784.66 62.205 777.553 Q62.205 770.424 60.3763 766.882 Q58.5707 763.317 54.9365 763.317 M54.9365 759.614 Q60.7467 759.614 63.8022 764.22 Q66.8809 768.803 66.8809 777.553 Q66.8809 786.28 63.8022 790.887 Q60.7467 795.47 54.9365 795.47 Q49.1264 795.47 46.0477 790.887 Q42.9921 786.28 42.9921 777.553 Q42.9921 768.803 46.0477 764.22 Q49.1264 759.614 54.9365 759.614 Z" fill="#000000" fill-rule="nonzero" fill-opacity="1"></path><path clip-path="url(#clip690)" d="M75.0984 788.919 L79.9827 788.919 L79.9827 794.799 L75.0984 794.799 L75.0984 788.919 Z" fill="#000000" fill-rule="nonzero" fill-opacity="1"></path><path clip-path="url(#clip690)" d="M100.168 763.317 Q96.5567 763.317 94.728 766.882 Q92.9224 770.424 92.9224 777.553 Q92.9224 784.66 94.728 788.225 Q96.5567 791.766 100.168 791.766 Q103.802 791.766 105.608 788.225 Q107.436 784.66 107.436 777.553 Q107.436 770.424 105.608 766.882 Q103.802 763.317 100.168 763.317 M100.168 759.614 Q105.978 759.614 109.033 764.22 Q112.112 768.803 112.112 777.553 Q112.112 786.28 109.033 790.887 Q105.978 795.47 100.168 795.47 Q94.3576 795.47 91.2789 790.887 Q88.2234 786.28 88.2234 777.553 Q88.2234 768.803 91.2789 764.22 Q94.3576 759.614 100.168 759.614 Z" fill="#000000" fill-rule="nonzero" fill-opacity="1"></path><path clip-path="url(#clip690)" d="M130.33 763.317 Q126.719 763.317 124.89 766.882 Q123.084 770.424 123.084 777.553 Q123.084 784.66 124.89 788.225 Q126.719 791.766 130.33 791.766 Q133.964 791.766 135.769 788.225 Q137.598 784.66 137.598 777.553 Q137.598 770.424 135.769 766.882 Q133.964 763.317 130.33 763.317 M130.33 759.614 Q136.14 759.614 139.195 764.22 Q142.274 768.803 142.274 777.553 Q142.274 786.28 139.195 790.887 Q136.14 795.47 130.33 795.47 Q124.519 795.47 121.441 790.887 Q118.385 786.28 118.385 777.553 Q118.385 768.803 121.441 764.22 Q124.519 759.614 130.33 759.614 Z" fill="#000000" fill-rule="nonzero" fill-opacity="1"></path><path clip-path="url(#clip690)" d="M160.491 763.317 Q156.88 763.317 155.052 766.882 Q153.246 770.424 153.246 777.553 Q153.246 784.66 155.052 788.225 Q156.88 791.766 160.491 791.766 Q164.126 791.766 165.931 788.225 Q167.76 784.66 167.76 777.553 Q167.76 770.424 165.931 766.882 Q164.126 763.317 160.491 763.317 M160.491 759.614 Q166.302 759.614 169.357 764.22 Q172.436 768.803 172.436 777.553 Q172.436 786.28 169.357 790.887 Q166.302 795.47 160.491 795.47 Q154.681 795.47 151.603 790.887 Q148.547 786.28 148.547 777.553 Q148.547 768.803 151.603 764.22 Q154.681 759.614 160.491 759.614 Z" fill="#000000" fill-rule="nonzero" fill-opacity="1"></path><path clip-path="url(#clip690)" d="M193.501 764.313 L181.695 782.762 L193.501 782.762 L193.501 764.313 M192.274 760.239 L198.153 760.239 L198.153 782.762 L203.084 782.762 L203.084 786.651 L198.153 786.651 L198.153 794.799 L193.501 794.799 L193.501 786.651 L177.899 786.651 L177.899 782.137 L192.274 760.239 Z" fill="#000000" fill-rule="nonzero" fill-opacity="1"></path><path clip-path="url(#clip690)" d="M56.418 487.228 Q52.8069 487.228 50.9782 490.793 Q49.1726 494.335 49.1726 501.464 Q49.1726 508.571 50.9782 512.135 Q52.8069 515.677 56.418 515.677 Q60.0522 515.677 61.8578 512.135 Q63.6865 508.571 63.6865 501.464 Q63.6865 494.335 61.8578 490.793 Q60.0522 487.228 56.418 487.228 M56.418 483.525 Q62.2281 483.525 65.2837 488.131 Q68.3624 492.714 68.3624 501.464 Q68.3624 510.191 65.2837 514.798 Q62.2281 519.381 56.418 519.381 Q50.6078 519.381 47.5291 514.798 Q44.4736 510.191 44.4736 501.464 Q44.4736 492.714 47.5291 488.131 Q50.6078 483.525 56.418 483.525 Z" fill="#000000" fill-rule="nonzero" fill-opacity="1"></path><path clip-path="url(#clip690)" d="M76.5799 512.83 L81.4641 512.83 L81.4641 518.71 L76.5799 518.71 L76.5799 512.83 Z" fill="#000000" fill-rule="nonzero" fill-opacity="1"></path><path clip-path="url(#clip690)" d="M101.649 487.228 Q98.0381 487.228 96.2094 490.793 Q94.4039 494.335 94.4039 501.464 Q94.4039 508.571 96.2094 512.135 Q98.0381 515.677 101.649 515.677 Q105.283 515.677 107.089 512.135 Q108.918 508.571 108.918 501.464 Q108.918 494.335 107.089 490.793 Q105.283 487.228 101.649 487.228 M101.649 483.525 Q107.459 483.525 110.515 488.131 Q113.594 492.714 113.594 501.464 Q113.594 510.191 110.515 514.798 Q107.459 519.381 101.649 519.381 Q95.8391 519.381 92.7604 514.798 Q89.7048 510.191 89.7048 501.464 Q89.7048 492.714 92.7604 488.131 Q95.8391 483.525 101.649 483.525 Z" fill="#000000" fill-rule="nonzero" fill-opacity="1"></path><path clip-path="url(#clip690)" d="M131.811 487.228 Q128.2 487.228 126.371 490.793 Q124.566 494.335 124.566 501.464 Q124.566 508.571 126.371 512.135 Q128.2 515.677 131.811 515.677 Q135.445 515.677 137.251 512.135 Q139.08 508.571 139.08 501.464 Q139.08 494.335 137.251 490.793 Q135.445 487.228 131.811 487.228 M131.811 483.525 Q137.621 483.525 140.677 488.131 Q143.755 492.714 143.755 501.464 Q143.755 510.191 140.677 514.798 Q137.621 519.381 131.811 519.381 Q126.001 519.381 122.922 514.798 Q119.867 510.191 119.867 501.464 Q119.867 492.714 122.922 488.131 Q126.001 483.525 131.811 483.525 Z" fill="#000000" fill-rule="nonzero" fill-opacity="1"></path><path clip-path="url(#clip690)" d="M161.973 487.228 Q158.362 487.228 156.533 490.793 Q154.728 494.335 154.728 501.464 Q154.728 508.571 156.533 512.135 Q158.362 515.677 161.973 515.677 Q165.607 515.677 167.413 512.135 Q169.241 508.571 169.241 501.464 Q169.241 494.335 167.413 490.793 Q165.607 487.228 161.973 487.228 M161.973 483.525 Q167.783 483.525 170.839 488.131 Q173.917 492.714 173.917 501.464 Q173.917 510.191 170.839 514.798 Q167.783 519.381 161.973 519.381 Q156.163 519.381 153.084 514.798 Q150.029 510.191 150.029 501.464 Q150.029 492.714 153.084 488.131 Q156.163 483.525 161.973 483.525 Z" fill="#000000" fill-rule="nonzero" fill-opacity="1"></path><path clip-path="url(#clip690)" d="M182.181 484.15 L200.538 484.15 L200.538 488.085 L186.464 488.085 L186.464 496.557 Q187.482 496.21 188.501 496.048 Q189.519 495.862 190.538 495.862 Q196.325 495.862 199.704 499.034 Q203.084 502.205 203.084 507.622 Q203.084 513.2 199.612 516.302 Q196.139 519.381 189.82 519.381 Q187.644 519.381 185.376 519.01 Q183.13 518.64 180.723 517.899 L180.723 513.2 Q182.806 514.335 185.028 514.89 Q187.251 515.446 189.727 515.446 Q193.732 515.446 196.07 513.339 Q198.408 511.233 198.408 507.622 Q198.408 504.011 196.07 501.904 Q193.732 499.798 189.727 499.798 Q187.852 499.798 185.977 500.214 Q184.126 500.631 182.181 501.511 L182.181 484.15 Z" fill="#000000" fill-rule="nonzero" fill-opacity="1"></path><path clip-path="url(#clip690)" d="M55.2606 211.139 Q51.6495 211.139 49.8208 214.704 Q48.0152 218.245 48.0152 225.375 Q48.0152 232.482 49.8208 236.046 Q51.6495 239.588 55.2606 239.588 Q58.8948 239.588 60.7004 236.046 Q62.5291 232.482 62.5291 225.375 Q62.5291 218.245 60.7004 214.704 Q58.8948 211.139 55.2606 211.139 M55.2606 207.435 Q61.0707 207.435 64.1263 212.042 Q67.205 216.625 67.205 225.375 Q67.205 234.102 64.1263 238.708 Q61.0707 243.292 55.2606 243.292 Q49.4504 243.292 46.3717 238.708 Q43.3162 234.102 43.3162 225.375 Q43.3162 216.625 46.3717 212.042 Q49.4504 207.435 55.2606 207.435 Z" fill="#000000" fill-rule="nonzero" fill-opacity="1"></path><path clip-path="url(#clip690)" d="M75.4225 236.741 L80.3067 236.741 L80.3067 242.62 L75.4225 242.62 L75.4225 236.741 Z" fill="#000000" fill-rule="nonzero" fill-opacity="1"></path><path clip-path="url(#clip690)" d="M100.492 211.139 Q96.8807 211.139 95.052 214.704 Q93.2465 218.245 93.2465 225.375 Q93.2465 232.482 95.052 236.046 Q96.8807 239.588 100.492 239.588 Q104.126 239.588 105.932 236.046 Q107.76 232.482 107.76 225.375 Q107.76 218.245 105.932 214.704 Q104.126 211.139 100.492 211.139 M100.492 207.435 Q106.302 207.435 109.358 212.042 Q112.436 216.625 112.436 225.375 Q112.436 234.102 109.358 238.708 Q106.302 243.292 100.492 243.292 Q94.6817 243.292 91.603 238.708 Q88.5474 234.102 88.5474 225.375 Q88.5474 216.625 91.603 212.042 Q94.6817 207.435 100.492 207.435 Z" fill="#000000" fill-rule="nonzero" fill-opacity="1"></path><path clip-path="url(#clip690)" d="M130.654 211.139 Q127.043 211.139 125.214 214.704 Q123.408 218.245 123.408 225.375 Q123.408 232.482 125.214 236.046 Q127.043 239.588 130.654 239.588 Q134.288 239.588 136.093 236.046 Q137.922 232.482 137.922 225.375 Q137.922 218.245 136.093 214.704 Q134.288 211.139 130.654 211.139 M130.654 207.435 Q136.464 207.435 139.519 212.042 Q142.598 216.625 142.598 225.375 Q142.598 234.102 139.519 238.708 Q136.464 243.292 130.654 243.292 Q124.844 243.292 121.765 238.708 Q118.709 234.102 118.709 225.375 Q118.709 216.625 121.765 212.042 Q124.844 207.435 130.654 207.435 Z" fill="#000000" fill-rule="nonzero" fill-opacity="1"></path><path clip-path="url(#clip690)" d="M160.816 211.139 Q157.204 211.139 155.376 214.704 Q153.57 218.245 153.57 225.375 Q153.57 232.482 155.376 236.046 Q157.204 239.588 160.816 239.588 Q164.45 239.588 166.255 236.046 Q168.084 232.482 168.084 225.375 Q168.084 218.245 166.255 214.704 Q164.45 211.139 160.816 211.139 M160.816 207.435 Q166.626 207.435 169.681 212.042 Q172.76 216.625 172.76 225.375 Q172.76 234.102 169.681 238.708 Q166.626 243.292 160.816 243.292 Q155.005 243.292 151.927 238.708 Q148.871 234.102 148.871 225.375 Q148.871 216.625 151.927 212.042 Q155.005 207.435 160.816 207.435 Z" fill="#000000" fill-rule="nonzero" fill-opacity="1"></path><path clip-path="url(#clip690)" d="M191.556 223.477 Q188.408 223.477 186.556 225.63 Q184.727 227.782 184.727 231.532 Q184.727 235.259 186.556 237.435 Q188.408 239.588 191.556 239.588 Q194.704 239.588 196.533 237.435 Q198.385 235.259 198.385 231.532 Q198.385 227.782 196.533 225.63 Q194.704 223.477 191.556 223.477 M200.839 208.824 L200.839 213.083 Q199.079 212.25 197.274 211.81 Q195.491 211.371 193.732 211.371 Q189.102 211.371 186.649 214.495 Q184.218 217.62 183.871 223.94 Q185.237 221.926 187.297 220.861 Q189.357 219.773 191.834 219.773 Q197.042 219.773 200.051 222.945 Q203.084 226.093 203.084 231.532 Q203.084 236.856 199.936 240.074 Q196.788 243.292 191.556 243.292 Q185.561 243.292 182.39 238.708 Q179.218 234.102 179.218 225.375 Q179.218 217.181 183.107 212.32 Q186.996 207.435 193.547 207.435 Q195.306 207.435 197.089 207.783 Q198.894 208.13 200.839 208.824 Z" fill="#000000" fill-rule="nonzero" fill-opacity="1"></path><polyline clip-path="url(#clip692)" style="stroke:#009af9; stroke-linecap:round; stroke-linejoin:round; stroke-width:4; stroke-opacity:1; fill:none" points="367.509,90.0967 402.668,47.2441 437.828,47.3504 472.988,47.445 508.148,47.539 543.308,47.6337 578.467,47.7281 613.627,47.8231 648.787,47.9185 683.947,48.0143 719.107,48.1118 754.267,48.2103 789.426,48.3121 824.586,48.4176 859.746,48.5297 894.906,48.652 930.066,48.7893 965.226,48.951 1000.39,49.149 1035.55,49.4031 1070.71,49.743 1105.86,50.2123 1141.02,50.878 1176.18,51.8384 1211.34,53.2378 1246.5,55.287 1281.66,58.2883 1316.82,62.6675 1351.98,69.0124 1387.14,78.1116 1422.3,90.9849 1457.46,108.887 1492.62,133.264 1527.78,165.627 1562.94,207.337 1598.1,259.312 1633.26,321.717 1668.42,393.759 1703.58,473.677 1738.74,558.967 1773.9,646.787 1809.06,734.386 1844.22,819.441 1879.38,900.234 1914.54,975.668 1949.7,1045.19 1984.86,1108.68 2020.02,1166.27 2055.18,1218.32 2090.34,1265.24 2125.5,1307.51 2160.66,1345.59 2195.82,1379.94 2230.98,1410.97 2266.14,1439.05 2301.3,1464.51 2336.46,1487.65 2371.62,1508.74 2406.78,1527.99 2441.94,1545.63 2477.1,1561.81 2512.26,1576.7 2547.42,1590.42 2582.58,1603.11 2617.74,1614.86 2652.9,1625.76 2688.06,1635.9 2723.22,1645.35 2758.38,1654.17 2793.54,1662.41 2828.7,1670.14 2863.86,1677.39 2899.02,1684.2 2934.18,1690.61 2969.34,1696.66 3004.5,1702.36 3039.66,1707.75 3074.82,1712.86 3109.97,1717.69 3145.13,1722.28 3180.29,1726.64 3215.45,1730.78 3250.61,1734.72 3285.77,1738.48 3320.93,1742.06 3356.09,1745.48 3391.25,1748.75 3426.41,1751.88 3461.57,1754.87 3496.73,1757.74 3531.89,1760.49 3567.05,1763.12 3602.21,1765.65 3637.37,1768.09 3672.53,1770.43 3707.69,1772.68 3742.85,1774.84 3778.01,1776.93 3813.17,1778.94 "></polyline>
<polyline clip-path="url(#clip692)" style="stroke:#e26f46; stroke-linecap:round; stroke-linejoin:round; stroke-width:4; stroke-opacity:1; fill:none" points="367.509,611.914 402.668,720.055 437.828,719.961 472.988,719.867 508.148,719.773 543.308,719.68 578.467,719.586 613.627,719.493 648.787,719.4 683.947,719.307 719.107,719.215 754.267,719.125 789.426,719.036 824.586,718.95 859.746,718.868 894.906,718.792 930.066,718.727 965.226,718.677 1000.39,718.651 1035.55,718.661 1070.71,718.727 1105.86,718.877 1141.02,719.154 1176.18,719.623 1211.34,720.377 1246.5,721.552 1281.66,723.346 1316.82,726.033 1351.98,729.996 1387.14,735.744 1422.3,743.936 1457.46,755.381 1492.62,771.005 1527.78,791.773 1562.94,818.542 1598.1,851.877 1633.26,891.849 1668.42,937.916 1703.58,988.919 1738.74,1043.24 1773.9,1099.07 1809.06,1154.66 1844.22,1208.56 1879.38,1259.7 1914.54,1307.41 1949.7,1351.36 1984.86,1391.48 2020.02,1427.87 2055.18,1460.76 2090.34,1490.41 2125.5,1517.13 2160.66,1541.22 2195.82,1562.94 2230.98,1582.57 2266.14,1600.35 2301.3,1616.47 2336.46,1631.13 2371.62,1644.48 2406.78,1656.69 2441.94,1667.87 2477.1,1678.13 2512.26,1687.58 2547.42,1696.29 2582.58,1704.34 2617.74,1711.79 2652.9,1718.72 2688.06,1725.16 2723.22,1731.16 2758.38,1736.76 2793.54,1742 2828.7,1746.91 2863.86,1751.52 2899.02,1755.85 2934.18,1759.93 2969.34,1763.77 3004.5,1767.4 3039.66,1770.83 3074.82,1774.08 3109.97,1777.16 3145.13,1780.08 3180.29,1782.85 3215.45,1785.49 3250.61,1788 3285.77,1790.39 3320.93,1792.67 3356.09,1794.85 3391.25,1796.93 3426.41,1798.92 3461.57,1800.83 3496.73,1802.66 3531.89,1804.41 3567.05,1806.09 3602.21,1807.7 3637.37,1809.25 3672.53,1810.74 3707.69,1812.17 3742.85,1813.55 3778.01,1814.88 3813.17,1816.17 "></polyline>
<polyline clip-path="url(#clip692)" style="stroke:#3da44d; stroke-linecap:round; stroke-linejoin:round; stroke-width:4; stroke-opacity:1; fill:none" points="367.509,156.318 402.668,156.318 437.828,156.318 472.988,156.318 508.148,156.318 543.308,156.318 578.467,156.318 613.627,156.318 648.787,156.318 683.947,156.318 719.107,156.318 754.267,156.318 789.426,156.318 824.586,156.318 859.746,156.318 894.906,156.318 930.066,156.318 965.226,156.318 1000.39,156.318 1035.55,156.318 1070.71,156.318 1105.86,156.318 1141.02,156.318 1176.18,156.318 1211.34,156.318 1246.5,156.318 1281.66,156.318 1316.82,156.318 1351.98,156.318 1387.14,156.318 1422.3,156.318 1457.46,156.318 1492.62,156.318 1527.78,156.318 1562.94,156.318 1598.1,156.318 1633.26,156.318 1668.42,156.318 1703.58,156.318 1738.74,156.318 1773.9,156.318 1809.06,156.318 1844.22,156.318 1879.38,156.318 1914.54,156.318 1949.7,156.318 1984.86,156.318 2020.02,156.318 2055.18,156.318 2090.34,156.318 2125.5,156.318 2160.66,156.318 2195.82,156.318 2230.98,156.318 2266.14,156.318 2301.3,156.318 2336.46,156.318 2371.62,156.318 2406.78,156.318 2441.94,156.318 2477.1,156.318 2512.26,156.318 2547.42,156.318 2582.58,156.318 2617.74,156.318 2652.9,156.318 2688.06,156.318 2723.22,156.318 2758.38,156.318 2793.54,156.318 2828.7,156.318 2863.86,156.318 2899.02,156.318 2934.18,156.318 2969.34,156.318 3004.5,156.318 3039.66,156.318 3074.82,156.318 3109.97,156.318 3145.13,156.318 3180.29,156.318 3215.45,156.318 3250.61,156.318 3285.77,156.318 3320.93,156.318 3356.09,156.318 3391.25,156.318 3426.41,156.318 3461.57,156.318 3496.73,156.318 3531.89,156.318 3567.05,156.318 3602.21,156.318 3637.37,156.318 3672.53,156.318 3707.69,156.318 3742.85,156.318 3778.01,156.318 3813.17,156.318 3848.33,156.318 "></polyline>
<polyline clip-path="url(#clip692)" style="stroke:#c271d2; stroke-linecap:round; stroke-linejoin:round; stroke-width:4; stroke-opacity:1; fill:none" points="367.509,766.364 402.668,766.364 437.828,766.364 472.988,766.364 508.148,766.364 543.308,766.364 578.467,766.364 613.627,766.364 648.787,766.364 683.947,766.364 719.107,766.364 754.267,766.364 789.426,766.364 824.586,766.364 859.746,766.364 894.906,766.364 930.066,766.364 965.226,766.364 1000.39,766.364 1035.55,766.364 1070.71,766.364 1105.86,766.364 1141.02,766.364 1176.18,766.364 1211.34,766.364 1246.5,766.364 1281.66,766.364 1316.82,766.364 1351.98,766.364 1387.14,766.364 1422.3,766.364 1457.46,766.364 1492.62,766.364 1527.78,766.364 1562.94,766.364 1598.1,766.364 1633.26,766.364 1668.42,766.364 1703.58,766.364 1738.74,766.364 1773.9,766.364 1809.06,766.364 1844.22,766.364 1879.38,766.364 1914.54,766.364 1949.7,766.364 1984.86,766.364 2020.02,766.364 2055.18,766.364 2090.34,766.364 2125.5,766.364 2160.66,766.364 2195.82,766.364 2230.98,766.364 2266.14,766.364 2301.3,766.364 2336.46,766.364 2371.62,766.364 2406.78,766.364 2441.94,766.364 2477.1,766.364 2512.26,766.364 2547.42,766.364 2582.58,766.364 2617.74,766.364 2652.9,766.364 2688.06,766.364 2723.22,766.364 2758.38,766.364 2793.54,766.364 2828.7,766.364 2863.86,766.364 2899.02,766.364 2934.18,766.364 2969.34,766.364 3004.5,766.364 3039.66,766.364 3074.82,766.364 3109.97,766.364 3145.13,766.364 3180.29,766.364 3215.45,766.364 3250.61,766.364 3285.77,766.364 3320.93,766.364 3356.09,766.364 3391.25,766.364 3426.41,766.364 3461.57,766.364 3496.73,766.364 3531.89,766.364 3567.05,766.364 3602.21,766.364 3637.37,766.364 3672.53,766.364 3707.69,766.364 3742.85,766.364 3778.01,766.364 3813.17,766.364 3848.33,766.364 "></polyline>
<path clip-path="url(#clip690)" d="M386.073 1820.72 L809.183 1820.72 L809.183 1561.52 L386.073 1561.52  Z" fill="#ffffff" fill-rule="evenodd" fill-opacity="1"></path>
<polyline clip-path="url(#clip690)" style="stroke:#000000; stroke-linecap:round; stroke-linejoin:round; stroke-width:4; stroke-opacity:1; fill:none" points="386.073,1820.72 809.183,1820.72 809.183,1561.52 386.073,1561.52 386.073,1820.72 "></polyline>
<polyline clip-path="url(#clip690)" style="stroke:#009af9; stroke-linecap:round; stroke-linejoin:round; stroke-width:4; stroke-opacity:1; fill:none" points="427.069,1613.36 673.047,1613.36 "></polyline>
<path clip-path="url(#clip690)" d="M727.886 1633.05 Q726.081 1637.68 724.368 1639.09 Q722.655 1640.5 719.784 1640.5 L716.382 1640.5 L716.382 1636.94 L718.882 1636.94 Q720.641 1636.94 721.613 1636.1 Q722.585 1635.27 723.766 1632.17 L724.53 1630.22 L714.044 1604.72 L718.558 1604.72 L726.659 1624.99 L734.761 1604.72 L739.275 1604.72 L727.886 1633.05 Z" fill="#000000" fill-rule="nonzero" fill-opacity="1"></path><path clip-path="url(#clip690)" d="M746.567 1626.71 L754.206 1626.71 L754.206 1600.34 L745.895 1602.01 L745.895 1597.75 L754.159 1596.08 L758.835 1596.08 L758.835 1626.71 L766.474 1626.71 L766.474 1630.64 L746.567 1630.64 L746.567 1626.71 Z" fill="#000000" fill-rule="nonzero" fill-opacity="1"></path><polyline clip-path="url(#clip690)" style="stroke:#e26f46; stroke-linecap:round; stroke-linejoin:round; stroke-width:4; stroke-opacity:1; fill:none" points="427.069,1665.2 673.047,1665.2 "></polyline>
<path clip-path="url(#clip690)" d="M727.886 1684.89 Q726.081 1689.52 724.368 1690.93 Q722.655 1692.34 719.784 1692.34 L716.382 1692.34 L716.382 1688.78 L718.882 1688.78 Q720.641 1688.78 721.613 1687.94 Q722.585 1687.11 723.766 1684.01 L724.53 1682.06 L714.044 1656.56 L718.558 1656.56 L726.659 1676.83 L734.761 1656.56 L739.275 1656.56 L727.886 1684.89 Z" fill="#000000" fill-rule="nonzero" fill-opacity="1"></path><path clip-path="url(#clip690)" d="M749.784 1678.55 L766.104 1678.55 L766.104 1682.48 L744.159 1682.48 L744.159 1678.55 Q746.821 1675.79 751.405 1671.16 Q756.011 1666.51 757.192 1665.17 Q759.437 1662.64 760.317 1660.91 Q761.219 1659.15 761.219 1657.46 Q761.219 1654.7 759.275 1652.97 Q757.354 1651.23 754.252 1651.23 Q752.053 1651.23 749.599 1652 Q747.169 1652.76 744.391 1654.31 L744.391 1649.59 Q747.215 1648.45 749.669 1647.87 Q752.122 1647.3 754.159 1647.3 Q759.53 1647.3 762.724 1649.98 Q765.918 1652.67 765.918 1657.16 Q765.918 1659.29 765.108 1661.21 Q764.321 1663.11 762.215 1665.7 Q761.636 1666.37 758.534 1669.59 Q755.432 1672.78 749.784 1678.55 Z" fill="#000000" fill-rule="nonzero" fill-opacity="1"></path><polyline clip-path="url(#clip690)" style="stroke:#3da44d; stroke-linecap:round; stroke-linejoin:round; stroke-width:4; stroke-opacity:1; fill:none" points="427.069,1717.04 673.047,1717.04 "></polyline>
<path clip-path="url(#clip690)" d="M727.886 1736.73 Q726.081 1741.36 724.368 1742.77 Q722.655 1744.18 719.784 1744.18 L716.382 1744.18 L716.382 1740.62 L718.882 1740.62 Q720.641 1740.62 721.613 1739.78 Q722.585 1738.95 723.766 1735.85 L724.53 1733.9 L714.044 1708.4 L718.558 1708.4 L726.659 1728.67 L734.761 1708.4 L739.275 1708.4 L727.886 1736.73 Z" fill="#000000" fill-rule="nonzero" fill-opacity="1"></path><path clip-path="url(#clip690)" d="M759.923 1715.69 Q763.28 1716.4 765.155 1718.67 Q767.053 1720.94 767.053 1724.27 Q767.053 1729.39 763.534 1732.19 Q760.016 1734.99 753.534 1734.99 Q751.358 1734.99 749.044 1734.55 Q746.752 1734.14 744.298 1733.28 L744.298 1728.77 Q746.243 1729.9 748.557 1730.48 Q750.872 1731.06 753.395 1731.06 Q757.794 1731.06 760.085 1729.32 Q762.4 1727.59 762.4 1724.27 Q762.4 1721.22 760.247 1719.51 Q758.118 1717.77 754.298 1717.77 L750.27 1717.77 L750.27 1713.93 L754.483 1713.93 Q757.932 1713.93 759.761 1712.56 Q761.59 1711.17 761.59 1708.58 Q761.59 1705.92 759.692 1704.51 Q757.817 1703.07 754.298 1703.07 Q752.377 1703.07 750.178 1703.49 Q747.979 1703.9 745.34 1704.78 L745.34 1700.62 Q748.002 1699.88 750.317 1699.51 Q752.655 1699.14 754.715 1699.14 Q760.039 1699.14 763.141 1701.57 Q766.243 1703.97 766.243 1708.09 Q766.243 1710.96 764.599 1712.96 Q762.956 1714.92 759.923 1715.69 Z" fill="#000000" fill-rule="nonzero" fill-opacity="1"></path><polyline clip-path="url(#clip690)" style="stroke:#c271d2; stroke-linecap:round; stroke-linejoin:round; stroke-width:4; stroke-opacity:1; fill:none" points="427.069,1768.88 673.047,1768.88 "></polyline>
<path clip-path="url(#clip690)" d="M727.886 1788.57 Q726.081 1793.2 724.368 1794.61 Q722.655 1796.02 719.784 1796.02 L716.382 1796.02 L716.382 1792.46 L718.882 1792.46 Q720.641 1792.46 721.613 1791.62 Q722.585 1790.79 723.766 1787.69 L724.53 1785.74 L714.044 1760.24 L718.558 1760.24 L726.659 1780.51 L734.761 1760.24 L739.275 1760.24 L727.886 1788.57 Z" fill="#000000" fill-rule="nonzero" fill-opacity="1"></path><path clip-path="url(#clip690)" d="M758.604 1755.68 L746.798 1774.12 L758.604 1774.12 L758.604 1755.68 M757.377 1751.6 L763.256 1751.6 L763.256 1774.12 L768.187 1774.12 L768.187 1778.01 L763.256 1778.01 L763.256 1786.16 L758.604 1786.16 L758.604 1778.01 L743.002 1778.01 L743.002 1773.5 L757.377 1751.6 Z" fill="#000000" fill-rule="nonzero" fill-opacity="1"></path></svg>